G04 #@! TF.GenerationSoftware,KiCad,Pcbnew,7.0.11+1*
G04 #@! TF.CreationDate,2024-05-23T22:44:03+02:00*
G04 #@! TF.ProjectId,pcb_shield,7063625f-7368-4696-956c-642e6b696361,rev?*
G04 #@! TF.SameCoordinates,Original*
G04 #@! TF.FileFunction,Legend,Bot*
G04 #@! TF.FilePolarity,Positive*
%FSLAX46Y46*%
G04 Gerber Fmt 4.6, Leading zero omitted, Abs format (unit mm)*
G04 Created by KiCad (PCBNEW 7.0.11+1) date 2024-05-23 22:44:03*
%MOMM*%
%LPD*%
G01*
G04 APERTURE LIST*
%ADD10C,0.150000*%
%ADD11C,0.120000*%
%ADD12R,1.700000X1.700000*%
%ADD13O,1.700000X1.700000*%
%ADD14C,3.200000*%
G04 APERTURE END LIST*
D10*
X167313333Y-58924819D02*
X167313333Y-59639104D01*
X167313333Y-59639104D02*
X167360952Y-59781961D01*
X167360952Y-59781961D02*
X167456190Y-59877200D01*
X167456190Y-59877200D02*
X167599047Y-59924819D01*
X167599047Y-59924819D02*
X167694285Y-59924819D01*
X166884761Y-59020057D02*
X166837142Y-58972438D01*
X166837142Y-58972438D02*
X166741904Y-58924819D01*
X166741904Y-58924819D02*
X166503809Y-58924819D01*
X166503809Y-58924819D02*
X166408571Y-58972438D01*
X166408571Y-58972438D02*
X166360952Y-59020057D01*
X166360952Y-59020057D02*
X166313333Y-59115295D01*
X166313333Y-59115295D02*
X166313333Y-59210533D01*
X166313333Y-59210533D02*
X166360952Y-59353390D01*
X166360952Y-59353390D02*
X166932380Y-59924819D01*
X166932380Y-59924819D02*
X166313333Y-59924819D01*
X106353333Y-58924819D02*
X106353333Y-59639104D01*
X106353333Y-59639104D02*
X106400952Y-59781961D01*
X106400952Y-59781961D02*
X106496190Y-59877200D01*
X106496190Y-59877200D02*
X106639047Y-59924819D01*
X106639047Y-59924819D02*
X106734285Y-59924819D01*
X105353333Y-59924819D02*
X105924761Y-59924819D01*
X105639047Y-59924819D02*
X105639047Y-58924819D01*
X105639047Y-58924819D02*
X105734285Y-59067676D01*
X105734285Y-59067676D02*
X105829523Y-59162914D01*
X105829523Y-59162914D02*
X105924761Y-59210533D01*
D11*
X169580000Y-109290000D02*
X164380000Y-109290000D01*
X169580000Y-60910000D02*
X169580000Y-109290000D01*
X169580000Y-60910000D02*
X166980000Y-60910000D01*
X166980000Y-63510000D02*
X164380000Y-63510000D01*
X166980000Y-60910000D02*
X166980000Y-63510000D01*
X165710000Y-60910000D02*
X164380000Y-60910000D01*
X164380000Y-63510000D02*
X164380000Y-109290000D01*
X164380000Y-60910000D02*
X164380000Y-62240000D01*
X108620000Y-109290000D02*
X103420000Y-109290000D01*
X108620000Y-60910000D02*
X108620000Y-109290000D01*
X108620000Y-60910000D02*
X106020000Y-60910000D01*
X106020000Y-63510000D02*
X103420000Y-63510000D01*
X106020000Y-60910000D02*
X106020000Y-63510000D01*
X104750000Y-60910000D02*
X103420000Y-60910000D01*
X103420000Y-63510000D02*
X103420000Y-109290000D01*
X103420000Y-60910000D02*
X103420000Y-62240000D01*
%LPC*%
D12*
X143463100Y-88040000D03*
D13*
X143463100Y-90580000D03*
X143463100Y-93120000D03*
X143463100Y-95660000D03*
D14*
X160630000Y-59700000D03*
D12*
X129513100Y-88040000D03*
D13*
X129513100Y-90580000D03*
X129513100Y-93120000D03*
X129513100Y-95660000D03*
D12*
X138813100Y-78340000D03*
D13*
X138813100Y-80880000D03*
X138813100Y-83420000D03*
D12*
X129513100Y-78340000D03*
D13*
X129513100Y-80880000D03*
X129513100Y-83420000D03*
D12*
X133975000Y-101600000D03*
D13*
X136515000Y-101600000D03*
X139055000Y-101600000D03*
D12*
X143463100Y-78340000D03*
D13*
X143463100Y-80880000D03*
X143463100Y-83420000D03*
D12*
X134163100Y-88040000D03*
D13*
X134163100Y-90580000D03*
X134163100Y-93120000D03*
X134163100Y-95660000D03*
D12*
X134163100Y-78340000D03*
D13*
X134163100Y-80880000D03*
X134163100Y-83420000D03*
D14*
X145390000Y-110400000D03*
X112370000Y-58430000D03*
D12*
X140300000Y-70800000D03*
D13*
X137760000Y-70800000D03*
X135220000Y-70800000D03*
X132680000Y-70800000D03*
D12*
X138813100Y-88040000D03*
D13*
X138813100Y-90580000D03*
X138813100Y-93120000D03*
X138813100Y-95660000D03*
D12*
X165710000Y-62240000D03*
D13*
X168250000Y-62240000D03*
X165710000Y-64780000D03*
X168250000Y-64780000D03*
X165710000Y-67320000D03*
X168250000Y-67320000D03*
X165710000Y-69860000D03*
X168250000Y-69860000D03*
X165710000Y-72400000D03*
X168250000Y-72400000D03*
X165710000Y-74940000D03*
X168250000Y-74940000D03*
X165710000Y-77480000D03*
X168250000Y-77480000D03*
X165710000Y-80020000D03*
X168250000Y-80020000D03*
X165710000Y-82560000D03*
X168250000Y-82560000D03*
X165710000Y-85100000D03*
X168250000Y-85100000D03*
X165710000Y-87640000D03*
X168250000Y-87640000D03*
X165710000Y-90180000D03*
X168250000Y-90180000D03*
X165710000Y-92720000D03*
X168250000Y-92720000D03*
X165710000Y-95260000D03*
X168250000Y-95260000D03*
X165710000Y-97800000D03*
X168250000Y-97800000D03*
X165710000Y-100340000D03*
X168250000Y-100340000D03*
X165710000Y-102880000D03*
X168250000Y-102880000D03*
X165710000Y-105420000D03*
X168250000Y-105420000D03*
X165710000Y-107960000D03*
X168250000Y-107960000D03*
D12*
X104750000Y-62240000D03*
D13*
X107290000Y-62240000D03*
X104750000Y-64780000D03*
X107290000Y-64780000D03*
X104750000Y-67320000D03*
X107290000Y-67320000D03*
X104750000Y-69860000D03*
X107290000Y-69860000D03*
X104750000Y-72400000D03*
X107290000Y-72400000D03*
X104750000Y-74940000D03*
X107290000Y-74940000D03*
X104750000Y-77480000D03*
X107290000Y-77480000D03*
X104750000Y-80020000D03*
X107290000Y-80020000D03*
X104750000Y-82560000D03*
X107290000Y-82560000D03*
X104750000Y-85100000D03*
X107290000Y-85100000D03*
X104750000Y-87640000D03*
X107290000Y-87640000D03*
X104750000Y-90180000D03*
X107290000Y-90180000D03*
X104750000Y-92720000D03*
X107290000Y-92720000D03*
X104750000Y-95260000D03*
X107290000Y-95260000D03*
X104750000Y-97800000D03*
X107290000Y-97800000D03*
X104750000Y-100340000D03*
X107290000Y-100340000D03*
X104750000Y-102880000D03*
X107290000Y-102880000D03*
X104750000Y-105420000D03*
X107290000Y-105420000D03*
X104750000Y-107960000D03*
X107290000Y-107960000D03*
%LPD*%
M02*
