M48
; DRILL file {KiCad 7.0.11+1} date Thu 23 May 2024 10:44:57 PM CEST
; FORMAT={-:-/ absolute / metric / decimal}
; #@! TF.CreationDate,2024-05-23T22:44:57+02:00
; #@! TF.GenerationSoftware,Kicad,Pcbnew,7.0.11+1
; #@! TF.FileFunction,Plated,1,2,PTH
FMAT,2
METRIC
; #@! TA.AperFunction,Plated,PTH,ViaDrill
T1C0.400
; #@! TA.AperFunction,Plated,PTH,ComponentDrill
T2C1.000
%
G90
G05
T1
X125.882Y-99.931
T2
X104.75Y-62.24
X104.75Y-64.78
X104.75Y-67.32
X104.75Y-69.86
X104.75Y-72.4
X104.75Y-74.94
X104.75Y-77.48
X104.75Y-80.02
X104.75Y-82.56
X104.75Y-85.1
X104.75Y-87.64
X104.75Y-90.18
X104.75Y-92.72
X104.75Y-95.26
X104.75Y-97.8
X104.75Y-100.34
X104.75Y-102.88
X104.75Y-105.42
X104.75Y-107.96
X107.29Y-62.24
X107.29Y-64.78
X107.29Y-67.32
X107.29Y-69.86
X107.29Y-72.4
X107.29Y-74.94
X107.29Y-77.48
X107.29Y-80.02
X107.29Y-82.56
X107.29Y-85.1
X107.29Y-87.64
X107.29Y-90.18
X107.29Y-92.72
X107.29Y-95.26
X107.29Y-97.8
X107.29Y-100.34
X107.29Y-102.88
X107.29Y-105.42
X107.29Y-107.96
X129.513Y-78.34
X129.513Y-80.88
X129.513Y-83.42
X129.513Y-88.04
X129.513Y-90.58
X129.513Y-93.12
X129.513Y-95.66
X132.68Y-70.8
X133.975Y-101.6
X134.163Y-78.34
X134.163Y-80.88
X134.163Y-83.42
X134.163Y-88.04
X134.163Y-90.58
X134.163Y-93.12
X134.163Y-95.66
X135.22Y-70.8
X136.515Y-101.6
X137.76Y-70.8
X138.813Y-78.34
X138.813Y-80.88
X138.813Y-83.42
X138.813Y-88.04
X138.813Y-90.58
X138.813Y-93.12
X138.813Y-95.66
X139.055Y-101.6
X140.3Y-70.8
X143.463Y-78.34
X143.463Y-80.88
X143.463Y-83.42
X143.463Y-88.04
X143.463Y-90.58
X143.463Y-93.12
X143.463Y-95.66
X165.71Y-62.24
X165.71Y-64.78
X165.71Y-67.32
X165.71Y-69.86
X165.71Y-72.4
X165.71Y-74.94
X165.71Y-77.48
X165.71Y-80.02
X165.71Y-82.56
X165.71Y-85.1
X165.71Y-87.64
X165.71Y-90.18
X165.71Y-92.72
X165.71Y-95.26
X165.71Y-97.8
X165.71Y-100.34
X165.71Y-102.88
X165.71Y-105.42
X165.71Y-107.96
X168.25Y-62.24
X168.25Y-64.78
X168.25Y-67.32
X168.25Y-69.86
X168.25Y-72.4
X168.25Y-74.94
X168.25Y-77.48
X168.25Y-80.02
X168.25Y-82.56
X168.25Y-85.1
X168.25Y-87.64
X168.25Y-90.18
X168.25Y-92.72
X168.25Y-95.26
X168.25Y-97.8
X168.25Y-100.34
X168.25Y-102.88
X168.25Y-105.42
X168.25Y-107.96
M30
