G04 #@! TF.GenerationSoftware,KiCad,Pcbnew,7.0.11+1*
G04 #@! TF.CreationDate,2024-05-23T22:44:03+02:00*
G04 #@! TF.ProjectId,pcb_shield,7063625f-7368-4696-956c-642e6b696361,rev?*
G04 #@! TF.SameCoordinates,Original*
G04 #@! TF.FileFunction,Profile,NP*
%FSLAX46Y46*%
G04 Gerber Fmt 4.6, Leading zero omitted, Abs format (unit mm)*
G04 Created by KiCad (PCBNEW 7.0.11+1) date 2024-05-23 22:44:03*
%MOMM*%
%LPD*%
G01*
G04 APERTURE LIST*
G04 #@! TA.AperFunction,Profile*
%ADD10C,0.100000*%
G04 #@! TD*
G04 APERTURE END LIST*
D10*
X151000000Y-55500000D02*
X170000000Y-55500000D01*
X148000000Y-113000000D02*
X150000000Y-111000000D01*
X103000000Y-55500000D02*
G75*
G03*
X101500000Y-57000000I0J-1500000D01*
G01*
X150000000Y-62000000D02*
X150000000Y-56500000D01*
X123000000Y-56500000D02*
G75*
G03*
X122000000Y-55500000I-1000000J0D01*
G01*
X101500000Y-109500000D02*
G75*
G03*
X103000000Y-111000000I1500000J0D01*
G01*
X151000000Y-55500000D02*
G75*
G03*
X150000000Y-56500000I0J-1000000D01*
G01*
X170000000Y-111000000D02*
G75*
G03*
X171500000Y-109500000I0J1500000D01*
G01*
X123000000Y-56500000D02*
X123000000Y-62000000D01*
X149000000Y-63000000D02*
G75*
G03*
X150000000Y-62000000I0J1000000D01*
G01*
X171500000Y-57000000D02*
X171500000Y-109500000D01*
X115000000Y-113000000D02*
X148000000Y-113000000D01*
X171500000Y-57000000D02*
G75*
G03*
X170000000Y-55500000I-1500000J0D01*
G01*
X113000000Y-111000000D02*
X115000000Y-113000000D01*
X123000000Y-62000000D02*
G75*
G03*
X124000000Y-63000000I1000000J0D01*
G01*
X103000000Y-55500000D02*
X122000000Y-55500000D01*
X101500000Y-57000000D02*
X101500000Y-109500000D01*
X124000000Y-63000000D02*
X149000000Y-63000000D01*
X103000000Y-111000000D02*
X113000000Y-111000000D01*
X150000000Y-111000000D02*
X170000000Y-111000000D01*
M02*
