G04 #@! TF.GenerationSoftware,KiCad,Pcbnew,7.0.11+1*
G04 #@! TF.CreationDate,2024-05-23T22:44:02+02:00*
G04 #@! TF.ProjectId,pcb_shield,7063625f-7368-4696-956c-642e6b696361,rev?*
G04 #@! TF.SameCoordinates,Original*
G04 #@! TF.FileFunction,Copper,L1,Top*
G04 #@! TF.FilePolarity,Positive*
%FSLAX46Y46*%
G04 Gerber Fmt 4.6, Leading zero omitted, Abs format (unit mm)*
G04 Created by KiCad (PCBNEW 7.0.11+1) date 2024-05-23 22:44:02*
%MOMM*%
%LPD*%
G01*
G04 APERTURE LIST*
G04 #@! TA.AperFunction,ComponentPad*
%ADD10R,1.700000X1.700000*%
G04 #@! TD*
G04 #@! TA.AperFunction,ComponentPad*
%ADD11O,1.700000X1.700000*%
G04 #@! TD*
G04 #@! TA.AperFunction,ViaPad*
%ADD12C,0.800000*%
G04 #@! TD*
G04 #@! TA.AperFunction,Conductor*
%ADD13C,0.250000*%
G04 #@! TD*
G04 #@! TA.AperFunction,Conductor*
%ADD14C,0.400000*%
G04 #@! TD*
G04 APERTURE END LIST*
D10*
X143463100Y-88040000D03*
D11*
X143463100Y-90580000D03*
X143463100Y-93120000D03*
X143463100Y-95660000D03*
D10*
X129513100Y-88040000D03*
D11*
X129513100Y-90580000D03*
X129513100Y-93120000D03*
X129513100Y-95660000D03*
D10*
X138813100Y-78340000D03*
D11*
X138813100Y-80880000D03*
X138813100Y-83420000D03*
D10*
X129513100Y-78340000D03*
D11*
X129513100Y-80880000D03*
X129513100Y-83420000D03*
D10*
X133975000Y-101600000D03*
D11*
X136515000Y-101600000D03*
X139055000Y-101600000D03*
D10*
X143463100Y-78340000D03*
D11*
X143463100Y-80880000D03*
X143463100Y-83420000D03*
D10*
X134163100Y-88040000D03*
D11*
X134163100Y-90580000D03*
X134163100Y-93120000D03*
X134163100Y-95660000D03*
D10*
X134163100Y-78340000D03*
D11*
X134163100Y-80880000D03*
X134163100Y-83420000D03*
D10*
X140300000Y-70800000D03*
D11*
X137760000Y-70800000D03*
X135220000Y-70800000D03*
X132680000Y-70800000D03*
D10*
X138813100Y-88040000D03*
D11*
X138813100Y-90580000D03*
X138813100Y-93120000D03*
X138813100Y-95660000D03*
D10*
X165710000Y-62240000D03*
D11*
X168250000Y-62240000D03*
X165710000Y-64780000D03*
X168250000Y-64780000D03*
X165710000Y-67320000D03*
X168250000Y-67320000D03*
X165710000Y-69860000D03*
X168250000Y-69860000D03*
X165710000Y-72400000D03*
X168250000Y-72400000D03*
X165710000Y-74940000D03*
X168250000Y-74940000D03*
X165710000Y-77480000D03*
X168250000Y-77480000D03*
X165710000Y-80020000D03*
X168250000Y-80020000D03*
X165710000Y-82560000D03*
X168250000Y-82560000D03*
X165710000Y-85100000D03*
X168250000Y-85100000D03*
X165710000Y-87640000D03*
X168250000Y-87640000D03*
X165710000Y-90180000D03*
X168250000Y-90180000D03*
X165710000Y-92720000D03*
X168250000Y-92720000D03*
X165710000Y-95260000D03*
X168250000Y-95260000D03*
X165710000Y-97800000D03*
X168250000Y-97800000D03*
X165710000Y-100340000D03*
X168250000Y-100340000D03*
X165710000Y-102880000D03*
X168250000Y-102880000D03*
X165710000Y-105420000D03*
X168250000Y-105420000D03*
X165710000Y-107960000D03*
X168250000Y-107960000D03*
D10*
X104750000Y-62240000D03*
D11*
X107290000Y-62240000D03*
X104750000Y-64780000D03*
X107290000Y-64780000D03*
X104750000Y-67320000D03*
X107290000Y-67320000D03*
X104750000Y-69860000D03*
X107290000Y-69860000D03*
X104750000Y-72400000D03*
X107290000Y-72400000D03*
X104750000Y-74940000D03*
X107290000Y-74940000D03*
X104750000Y-77480000D03*
X107290000Y-77480000D03*
X104750000Y-80020000D03*
X107290000Y-80020000D03*
X104750000Y-82560000D03*
X107290000Y-82560000D03*
X104750000Y-85100000D03*
X107290000Y-85100000D03*
X104750000Y-87640000D03*
X107290000Y-87640000D03*
X104750000Y-90180000D03*
X107290000Y-90180000D03*
X104750000Y-92720000D03*
X107290000Y-92720000D03*
X104750000Y-95260000D03*
X107290000Y-95260000D03*
X104750000Y-97800000D03*
X107290000Y-97800000D03*
X104750000Y-100340000D03*
X107290000Y-100340000D03*
X104750000Y-102880000D03*
X107290000Y-102880000D03*
X104750000Y-105420000D03*
X107290000Y-105420000D03*
X104750000Y-107960000D03*
X107290000Y-107960000D03*
D12*
X125882500Y-99931200D03*
D13*
X106113100Y-89003100D02*
X122856200Y-89003100D01*
X122856200Y-89003100D02*
X129513100Y-95660000D01*
X104750000Y-87640000D02*
X106113100Y-89003100D01*
X135801100Y-79189700D02*
X135801100Y-80930300D01*
X145456500Y-77163100D02*
X137827700Y-77163100D01*
X134646000Y-82085400D02*
X133699500Y-82085400D01*
X154663400Y-86370000D02*
X145456500Y-77163100D01*
X166927600Y-87156700D02*
X166140900Y-86370000D01*
X166140900Y-86370000D02*
X154663400Y-86370000D01*
X137827700Y-77163100D02*
X135801100Y-79189700D01*
X133699500Y-82085400D02*
X129954100Y-78340000D01*
X166927600Y-101662400D02*
X166927600Y-87156700D01*
X129954100Y-78340000D02*
X129513100Y-78340000D01*
X135801100Y-80930300D02*
X134646000Y-82085400D01*
X165710000Y-102880000D02*
X166927600Y-101662400D01*
D14*
X138813100Y-88040000D02*
X143463100Y-88040000D01*
X137557700Y-89295400D02*
X138813100Y-88040000D01*
X133975000Y-101600000D02*
X137557700Y-98017300D01*
X137557700Y-98017300D02*
X137557700Y-89295400D01*
D13*
X168250000Y-77480000D02*
X167059400Y-78670600D01*
X147641000Y-78670600D02*
X145669900Y-76699500D01*
X145669900Y-76699500D02*
X135803600Y-76699500D01*
X135803600Y-76699500D02*
X134163100Y-78340000D01*
X167059400Y-78670600D02*
X147641000Y-78670600D01*
X115584200Y-62240000D02*
X134163100Y-80818900D01*
X134163100Y-80818900D02*
X134163100Y-80880000D01*
X107290000Y-62240000D02*
X115584200Y-62240000D01*
X106020000Y-66050000D02*
X107717700Y-66050000D01*
X132907600Y-82164500D02*
X134163100Y-83420000D01*
X107717700Y-66050000D02*
X123832200Y-82164500D01*
X123832200Y-82164500D02*
X132907600Y-82164500D01*
X104750000Y-64780000D02*
X106020000Y-66050000D01*
D14*
X107290000Y-82560000D02*
X121493100Y-82560000D01*
X121493100Y-82560000D02*
X129513100Y-90580000D01*
D13*
X143493100Y-100340000D02*
X138813100Y-95660000D01*
X165710000Y-100340000D02*
X143493100Y-100340000D01*
X138813100Y-78340000D02*
X140110300Y-79637200D01*
X154545900Y-90180000D02*
X165710000Y-90180000D01*
X140110300Y-79637200D02*
X144003100Y-79637200D01*
X144003100Y-79637200D02*
X154545900Y-90180000D01*
X103543300Y-105914400D02*
X104318900Y-106690000D01*
X104348900Y-101610000D02*
X103543300Y-102415600D01*
X104318900Y-106690000D02*
X106020000Y-106690000D01*
X103543300Y-102415600D02*
X103543300Y-105914400D01*
X130731600Y-88651500D02*
X130731600Y-96114800D01*
X138813100Y-80880000D02*
X138503100Y-80880000D01*
X125236400Y-101610000D02*
X104348900Y-101610000D01*
X130731600Y-96114800D02*
X125236400Y-101610000D01*
X138503100Y-80880000D02*
X130731600Y-88651500D01*
X106020000Y-106690000D02*
X107290000Y-107960000D01*
X135795500Y-86437600D02*
X138813100Y-83420000D01*
X133768700Y-91850000D02*
X134579300Y-91850000D01*
X132128900Y-93489800D02*
X133768700Y-91850000D01*
X132128900Y-96033800D02*
X132128900Y-93489800D01*
X135795500Y-90633800D02*
X135795500Y-86437600D01*
X107290000Y-105420000D02*
X122742700Y-105420000D01*
X122742700Y-105420000D02*
X132128900Y-96033800D01*
X134579300Y-91850000D02*
X135795500Y-90633800D01*
X152763100Y-87640000D02*
X143463100Y-78340000D01*
X165710000Y-87640000D02*
X152763100Y-87640000D01*
X105963600Y-104206400D02*
X123279100Y-104206400D01*
X142193100Y-82150000D02*
X143463100Y-80880000D01*
X131506900Y-88527300D02*
X137884200Y-82150000D01*
X104750000Y-105420000D02*
X105963600Y-104206400D01*
X131506900Y-95978600D02*
X131506900Y-88527300D01*
X137884200Y-82150000D02*
X142193100Y-82150000D01*
X123279100Y-104206400D02*
X131506900Y-95978600D01*
X133724300Y-94390000D02*
X134569100Y-94390000D01*
X137030800Y-87606800D02*
X141217600Y-83420000D01*
X141217600Y-83420000D02*
X143463100Y-83420000D01*
X134569100Y-94390000D02*
X137030800Y-91928300D01*
X132580800Y-95533500D02*
X133724300Y-94390000D01*
X105964500Y-109174500D02*
X119627300Y-109174500D01*
X132580800Y-96221000D02*
X132580800Y-95533500D01*
X119627300Y-109174500D02*
X132580800Y-96221000D01*
X104750000Y-107960000D02*
X105964500Y-109174500D01*
X137030800Y-91928300D02*
X137030800Y-87606800D01*
X139970000Y-66050000D02*
X135220000Y-70800000D01*
X166980000Y-66050000D02*
X139970000Y-66050000D01*
X168250000Y-64780000D02*
X166980000Y-66050000D01*
X169442800Y-80569800D02*
X169442800Y-76986800D01*
X165710000Y-85100000D02*
X166980000Y-83830000D01*
X166980000Y-82129100D02*
X167819100Y-81290000D01*
X166980000Y-83830000D02*
X166980000Y-82129100D01*
X168722600Y-81290000D02*
X169442800Y-80569800D01*
X167819100Y-81290000D02*
X168722600Y-81290000D01*
X169442800Y-76986800D02*
X168687400Y-76231400D01*
X168687400Y-76231400D02*
X138111400Y-76231400D01*
X138111400Y-76231400D02*
X132680000Y-70800000D01*
D14*
X107290000Y-90180000D02*
X117041200Y-99931200D01*
X117041200Y-99931200D02*
X125882500Y-99931200D01*
M02*
