G04 #@! TF.GenerationSoftware,KiCad,Pcbnew,7.0.11+1*
G04 #@! TF.CreationDate,2024-05-23T22:44:02+02:00*
G04 #@! TF.ProjectId,pcb_shield,7063625f-7368-4696-956c-642e6b696361,rev?*
G04 #@! TF.SameCoordinates,Original*
G04 #@! TF.FileFunction,Copper,L2,Bot*
G04 #@! TF.FilePolarity,Positive*
%FSLAX46Y46*%
G04 Gerber Fmt 4.6, Leading zero omitted, Abs format (unit mm)*
G04 Created by KiCad (PCBNEW 7.0.11+1) date 2024-05-23 22:44:02*
%MOMM*%
%LPD*%
G01*
G04 APERTURE LIST*
G04 #@! TA.AperFunction,ComponentPad*
%ADD10R,1.700000X1.700000*%
G04 #@! TD*
G04 #@! TA.AperFunction,ComponentPad*
%ADD11O,1.700000X1.700000*%
G04 #@! TD*
G04 #@! TA.AperFunction,ViaPad*
%ADD12C,0.800000*%
G04 #@! TD*
G04 #@! TA.AperFunction,Conductor*
%ADD13C,0.250000*%
G04 #@! TD*
G04 #@! TA.AperFunction,Conductor*
%ADD14C,0.400000*%
G04 #@! TD*
G04 APERTURE END LIST*
D10*
X143463100Y-88040000D03*
D11*
X143463100Y-90580000D03*
X143463100Y-93120000D03*
X143463100Y-95660000D03*
D10*
X129513100Y-88040000D03*
D11*
X129513100Y-90580000D03*
X129513100Y-93120000D03*
X129513100Y-95660000D03*
D10*
X138813100Y-78340000D03*
D11*
X138813100Y-80880000D03*
X138813100Y-83420000D03*
D10*
X129513100Y-78340000D03*
D11*
X129513100Y-80880000D03*
X129513100Y-83420000D03*
D10*
X133975000Y-101600000D03*
D11*
X136515000Y-101600000D03*
X139055000Y-101600000D03*
D10*
X143463100Y-78340000D03*
D11*
X143463100Y-80880000D03*
X143463100Y-83420000D03*
D10*
X134163100Y-88040000D03*
D11*
X134163100Y-90580000D03*
X134163100Y-93120000D03*
X134163100Y-95660000D03*
D10*
X134163100Y-78340000D03*
D11*
X134163100Y-80880000D03*
X134163100Y-83420000D03*
D10*
X140300000Y-70800000D03*
D11*
X137760000Y-70800000D03*
X135220000Y-70800000D03*
X132680000Y-70800000D03*
D10*
X138813100Y-88040000D03*
D11*
X138813100Y-90580000D03*
X138813100Y-93120000D03*
X138813100Y-95660000D03*
D10*
X165710000Y-62240000D03*
D11*
X168250000Y-62240000D03*
X165710000Y-64780000D03*
X168250000Y-64780000D03*
X165710000Y-67320000D03*
X168250000Y-67320000D03*
X165710000Y-69860000D03*
X168250000Y-69860000D03*
X165710000Y-72400000D03*
X168250000Y-72400000D03*
X165710000Y-74940000D03*
X168250000Y-74940000D03*
X165710000Y-77480000D03*
X168250000Y-77480000D03*
X165710000Y-80020000D03*
X168250000Y-80020000D03*
X165710000Y-82560000D03*
X168250000Y-82560000D03*
X165710000Y-85100000D03*
X168250000Y-85100000D03*
X165710000Y-87640000D03*
X168250000Y-87640000D03*
X165710000Y-90180000D03*
X168250000Y-90180000D03*
X165710000Y-92720000D03*
X168250000Y-92720000D03*
X165710000Y-95260000D03*
X168250000Y-95260000D03*
X165710000Y-97800000D03*
X168250000Y-97800000D03*
X165710000Y-100340000D03*
X168250000Y-100340000D03*
X165710000Y-102880000D03*
X168250000Y-102880000D03*
X165710000Y-105420000D03*
X168250000Y-105420000D03*
X165710000Y-107960000D03*
X168250000Y-107960000D03*
D10*
X104750000Y-62240000D03*
D11*
X107290000Y-62240000D03*
X104750000Y-64780000D03*
X107290000Y-64780000D03*
X104750000Y-67320000D03*
X107290000Y-67320000D03*
X104750000Y-69860000D03*
X107290000Y-69860000D03*
X104750000Y-72400000D03*
X107290000Y-72400000D03*
X104750000Y-74940000D03*
X107290000Y-74940000D03*
X104750000Y-77480000D03*
X107290000Y-77480000D03*
X104750000Y-80020000D03*
X107290000Y-80020000D03*
X104750000Y-82560000D03*
X107290000Y-82560000D03*
X104750000Y-85100000D03*
X107290000Y-85100000D03*
X104750000Y-87640000D03*
X107290000Y-87640000D03*
X104750000Y-90180000D03*
X107290000Y-90180000D03*
X104750000Y-92720000D03*
X107290000Y-92720000D03*
X104750000Y-95260000D03*
X107290000Y-95260000D03*
X104750000Y-97800000D03*
X107290000Y-97800000D03*
X104750000Y-100340000D03*
X107290000Y-100340000D03*
X104750000Y-102880000D03*
X107290000Y-102880000D03*
X104750000Y-105420000D03*
X107290000Y-105420000D03*
X104750000Y-107960000D03*
X107290000Y-107960000D03*
D12*
X125882500Y-99931200D03*
D13*
X165710000Y-82560000D02*
X151374800Y-96895200D01*
X130783100Y-94390000D02*
X129513100Y-93120000D01*
X151374800Y-96895200D02*
X143021100Y-96895200D01*
X143021100Y-96895200D02*
X140515900Y-94390000D01*
X140515900Y-94390000D02*
X130783100Y-94390000D01*
X130877700Y-79515400D02*
X129513100Y-80880000D01*
X136490000Y-71932600D02*
X130877700Y-77544900D01*
X130877700Y-77544900D02*
X130877700Y-79515400D01*
X138322200Y-68564300D02*
X136490000Y-70396500D01*
X168250000Y-67320000D02*
X167005700Y-68564300D01*
X136490000Y-70396500D02*
X136490000Y-71932600D01*
X167005700Y-68564300D02*
X138322200Y-68564300D01*
X107290000Y-67320000D02*
X106020000Y-68590000D01*
X106859100Y-99070000D02*
X123010700Y-99070000D01*
X123010700Y-99070000D02*
X126717600Y-102776900D01*
X135338100Y-102776900D02*
X136515000Y-101600000D01*
X104318900Y-86370000D02*
X105222600Y-86370000D01*
X103543300Y-85594400D02*
X104318900Y-86370000D01*
X106020000Y-68590000D02*
X104355600Y-68590000D01*
X104355600Y-68590000D02*
X103543300Y-69402300D01*
X103543300Y-69402300D02*
X103543300Y-85594400D01*
X126717600Y-102776900D02*
X135338100Y-102776900D01*
X106020000Y-98230900D02*
X106859100Y-99070000D01*
X106020000Y-87167400D02*
X106020000Y-98230900D01*
X105222600Y-86370000D02*
X106020000Y-87167400D01*
X106020000Y-63510000D02*
X109603100Y-63510000D01*
X109603100Y-63510000D02*
X129513100Y-83420000D01*
X104750000Y-62240000D02*
X106020000Y-63510000D01*
D14*
X104750000Y-85100000D02*
X105497600Y-84352400D01*
X166980000Y-73969100D02*
X165710000Y-72699100D01*
X129113100Y-87640000D02*
X129513100Y-88040000D01*
X142205900Y-86782800D02*
X142205900Y-72705900D01*
X165710000Y-72699100D02*
X142212700Y-72699100D01*
X166980000Y-83830000D02*
X166980000Y-73969100D01*
X134163100Y-88040000D02*
X138813100Y-88040000D01*
X129513100Y-88040000D02*
X134163100Y-88040000D01*
X165710000Y-72699100D02*
X165710000Y-72400000D01*
X107290000Y-85100000D02*
X106767600Y-85100000D01*
X106767600Y-85100000D02*
X106020000Y-84352400D01*
X107290000Y-87640000D02*
X107290000Y-85100000D01*
X142205900Y-72705900D02*
X140300000Y-70800000D01*
X105497600Y-84352400D02*
X106020000Y-84352400D01*
X106020000Y-71130000D02*
X107290000Y-69860000D01*
X106020000Y-84352400D02*
X106020000Y-71130000D01*
X107290000Y-87640000D02*
X129113100Y-87640000D01*
X142212700Y-72699100D02*
X142205900Y-72705900D01*
X168250000Y-85100000D02*
X166980000Y-83830000D01*
X143463100Y-88040000D02*
X142205900Y-86782800D01*
D13*
X107290000Y-95260000D02*
X110606900Y-91943100D01*
X132986200Y-91943100D02*
X134163100Y-93120000D01*
X110606900Y-91943100D02*
X132986200Y-91943100D01*
X132023100Y-97800000D02*
X134163100Y-95660000D01*
X107290000Y-97800000D02*
X132023100Y-97800000D01*
X148800000Y-91850000D02*
X140083100Y-91850000D01*
X165710000Y-74940000D02*
X148800000Y-91850000D01*
X140083100Y-91850000D02*
X138813100Y-93120000D01*
D14*
X134163100Y-90580000D02*
X138813100Y-90580000D01*
X140065000Y-89328100D02*
X138813100Y-90580000D01*
X137760000Y-70800000D02*
X140065000Y-73105000D01*
X140065000Y-89328100D02*
X142211200Y-89328100D01*
X140065000Y-73105000D02*
X140065000Y-89328100D01*
X142211200Y-89328100D02*
X143463100Y-90580000D01*
X129513100Y-90580000D02*
X134163100Y-90580000D01*
D13*
X165710000Y-77480000D02*
X150070000Y-93120000D01*
X150070000Y-93120000D02*
X143463100Y-93120000D01*
X150070000Y-95660000D02*
X143463100Y-95660000D01*
X165710000Y-80020000D02*
X150070000Y-95660000D01*
D14*
X139055000Y-101600000D02*
X137386200Y-99931200D01*
X137386200Y-99931200D02*
X125882500Y-99931200D01*
M02*
