%TF.GenerationSoftware,KiCad,Pcbnew,7.0.11+1*%
%TF.CreationDate,2024-05-23T22:45:13+02:00*%
%TF.ProjectId,pcb_shield,7063625f-7368-4696-956c-642e6b696361,rev?*%
%TF.SameCoordinates,Original*%
%TF.FileFunction,Drillmap*%
%TF.FilePolarity,Positive*%
%FSLAX45Y45*%
G04 Gerber Fmt 4.5, Leading zero omitted, Abs format (unit mm)*
G04 Created by KiCad (PCBNEW 7.0.11+1) date 2024-05-23 22:45:13*
%MOMM*%
%LPD*%
G01*
G04 APERTURE LIST*
%ADD10C,0.100000*%
%ADD11C,0.200000*%
%ADD12C,0.320000*%
G04 APERTURE END LIST*
D10*
X15100000Y-5550000D02*
X17000000Y-5550000D01*
X14800000Y-11300000D02*
X15000000Y-11100000D01*
X10300000Y-5550000D02*
G75*
G03*
X10150000Y-5700000I0J-150000D01*
G01*
X15000000Y-6200000D02*
X15000000Y-5650000D01*
X12300000Y-5650000D02*
G75*
G03*
X12200000Y-5550000I-100000J0D01*
G01*
X10150000Y-10950000D02*
G75*
G03*
X10300000Y-11100000I150000J0D01*
G01*
X15100000Y-5550000D02*
G75*
G03*
X15000000Y-5650000I0J-100000D01*
G01*
X17000000Y-11100000D02*
G75*
G03*
X17150000Y-10950000I0J150000D01*
G01*
X12300000Y-5650000D02*
X12300000Y-6200000D01*
X14900000Y-6300000D02*
G75*
G03*
X15000000Y-6200000I0J100000D01*
G01*
X17150000Y-5700000D02*
X17150000Y-10950000D01*
X11500000Y-11300000D02*
X14800000Y-11300000D01*
X17150000Y-5700000D02*
G75*
G03*
X17000000Y-5550000I-150000J0D01*
G01*
X11300000Y-11100000D02*
X11500000Y-11300000D01*
X12300000Y-6200000D02*
G75*
G03*
X12400000Y-6300000I100000J0D01*
G01*
X10300000Y-5550000D02*
X12200000Y-5550000D01*
X10150000Y-5700000D02*
X10150000Y-10950000D01*
X12400000Y-6300000D02*
X14900000Y-6300000D01*
X10300000Y-11100000D02*
X11300000Y-11100000D01*
X15000000Y-11100000D02*
X17000000Y-11100000D01*
D11*
D12*
X11077000Y-5683000D02*
X11397000Y-6003000D01*
X11397000Y-5683000D02*
X11077000Y-6003000D01*
X14379000Y-10880000D02*
X14699000Y-11200000D01*
X14699000Y-10880000D02*
X14379000Y-11200000D01*
X15903000Y-5810000D02*
X16223000Y-6130000D01*
X16223000Y-5810000D02*
X15903000Y-6130000D01*
D11*
X10405777Y-11616484D02*
X10405777Y-11416484D01*
X10405777Y-11416484D02*
X10453396Y-11416484D01*
X10453396Y-11416484D02*
X10481967Y-11426008D01*
X10481967Y-11426008D02*
X10501015Y-11445055D01*
X10501015Y-11445055D02*
X10510539Y-11464103D01*
X10510539Y-11464103D02*
X10520063Y-11502198D01*
X10520063Y-11502198D02*
X10520063Y-11530769D01*
X10520063Y-11530769D02*
X10510539Y-11568865D01*
X10510539Y-11568865D02*
X10501015Y-11587912D01*
X10501015Y-11587912D02*
X10481967Y-11606960D01*
X10481967Y-11606960D02*
X10453396Y-11616484D01*
X10453396Y-11616484D02*
X10405777Y-11616484D01*
X10605777Y-11616484D02*
X10605777Y-11483150D01*
X10605777Y-11521246D02*
X10615301Y-11502198D01*
X10615301Y-11502198D02*
X10624824Y-11492674D01*
X10624824Y-11492674D02*
X10643872Y-11483150D01*
X10643872Y-11483150D02*
X10662920Y-11483150D01*
X10729586Y-11616484D02*
X10729586Y-11483150D01*
X10729586Y-11416484D02*
X10720063Y-11426008D01*
X10720063Y-11426008D02*
X10729586Y-11435531D01*
X10729586Y-11435531D02*
X10739110Y-11426008D01*
X10739110Y-11426008D02*
X10729586Y-11416484D01*
X10729586Y-11416484D02*
X10729586Y-11435531D01*
X10853396Y-11616484D02*
X10834348Y-11606960D01*
X10834348Y-11606960D02*
X10824824Y-11587912D01*
X10824824Y-11587912D02*
X10824824Y-11416484D01*
X10958158Y-11616484D02*
X10939110Y-11606960D01*
X10939110Y-11606960D02*
X10929586Y-11587912D01*
X10929586Y-11587912D02*
X10929586Y-11416484D01*
X11186729Y-11616484D02*
X11186729Y-11416484D01*
X11186729Y-11416484D02*
X11253396Y-11559341D01*
X11253396Y-11559341D02*
X11320062Y-11416484D01*
X11320062Y-11416484D02*
X11320062Y-11616484D01*
X11501015Y-11616484D02*
X11501015Y-11511722D01*
X11501015Y-11511722D02*
X11491491Y-11492674D01*
X11491491Y-11492674D02*
X11472443Y-11483150D01*
X11472443Y-11483150D02*
X11434348Y-11483150D01*
X11434348Y-11483150D02*
X11415301Y-11492674D01*
X11501015Y-11606960D02*
X11481967Y-11616484D01*
X11481967Y-11616484D02*
X11434348Y-11616484D01*
X11434348Y-11616484D02*
X11415301Y-11606960D01*
X11415301Y-11606960D02*
X11405777Y-11587912D01*
X11405777Y-11587912D02*
X11405777Y-11568865D01*
X11405777Y-11568865D02*
X11415301Y-11549817D01*
X11415301Y-11549817D02*
X11434348Y-11540293D01*
X11434348Y-11540293D02*
X11481967Y-11540293D01*
X11481967Y-11540293D02*
X11501015Y-11530769D01*
X11596253Y-11483150D02*
X11596253Y-11683150D01*
X11596253Y-11492674D02*
X11615301Y-11483150D01*
X11615301Y-11483150D02*
X11653396Y-11483150D01*
X11653396Y-11483150D02*
X11672443Y-11492674D01*
X11672443Y-11492674D02*
X11681967Y-11502198D01*
X11681967Y-11502198D02*
X11691491Y-11521246D01*
X11691491Y-11521246D02*
X11691491Y-11578388D01*
X11691491Y-11578388D02*
X11681967Y-11597436D01*
X11681967Y-11597436D02*
X11672443Y-11606960D01*
X11672443Y-11606960D02*
X11653396Y-11616484D01*
X11653396Y-11616484D02*
X11615301Y-11616484D01*
X11615301Y-11616484D02*
X11596253Y-11606960D01*
X11777205Y-11597436D02*
X11786729Y-11606960D01*
X11786729Y-11606960D02*
X11777205Y-11616484D01*
X11777205Y-11616484D02*
X11767682Y-11606960D01*
X11767682Y-11606960D02*
X11777205Y-11597436D01*
X11777205Y-11597436D02*
X11777205Y-11616484D01*
X11777205Y-11492674D02*
X11786729Y-11502198D01*
X11786729Y-11502198D02*
X11777205Y-11511722D01*
X11777205Y-11511722D02*
X11767682Y-11502198D01*
X11767682Y-11502198D02*
X11777205Y-11492674D01*
X11777205Y-11492674D02*
X11777205Y-11511722D01*
X9945000Y-11845000D02*
X10145000Y-12045000D01*
X10145000Y-11845000D02*
X9945000Y-12045000D01*
X10386729Y-11836484D02*
X10510539Y-11836484D01*
X10510539Y-11836484D02*
X10443872Y-11912674D01*
X10443872Y-11912674D02*
X10472444Y-11912674D01*
X10472444Y-11912674D02*
X10491491Y-11922198D01*
X10491491Y-11922198D02*
X10501015Y-11931722D01*
X10501015Y-11931722D02*
X10510539Y-11950769D01*
X10510539Y-11950769D02*
X10510539Y-11998388D01*
X10510539Y-11998388D02*
X10501015Y-12017436D01*
X10501015Y-12017436D02*
X10491491Y-12026960D01*
X10491491Y-12026960D02*
X10472444Y-12036484D01*
X10472444Y-12036484D02*
X10415301Y-12036484D01*
X10415301Y-12036484D02*
X10396253Y-12026960D01*
X10396253Y-12026960D02*
X10386729Y-12017436D01*
X10596253Y-12017436D02*
X10605777Y-12026960D01*
X10605777Y-12026960D02*
X10596253Y-12036484D01*
X10596253Y-12036484D02*
X10586729Y-12026960D01*
X10586729Y-12026960D02*
X10596253Y-12017436D01*
X10596253Y-12017436D02*
X10596253Y-12036484D01*
X10681967Y-11855531D02*
X10691491Y-11846008D01*
X10691491Y-11846008D02*
X10710539Y-11836484D01*
X10710539Y-11836484D02*
X10758158Y-11836484D01*
X10758158Y-11836484D02*
X10777205Y-11846008D01*
X10777205Y-11846008D02*
X10786729Y-11855531D01*
X10786729Y-11855531D02*
X10796253Y-11874579D01*
X10796253Y-11874579D02*
X10796253Y-11893627D01*
X10796253Y-11893627D02*
X10786729Y-11922198D01*
X10786729Y-11922198D02*
X10672444Y-12036484D01*
X10672444Y-12036484D02*
X10796253Y-12036484D01*
X10920063Y-11836484D02*
X10939110Y-11836484D01*
X10939110Y-11836484D02*
X10958158Y-11846008D01*
X10958158Y-11846008D02*
X10967682Y-11855531D01*
X10967682Y-11855531D02*
X10977205Y-11874579D01*
X10977205Y-11874579D02*
X10986729Y-11912674D01*
X10986729Y-11912674D02*
X10986729Y-11960293D01*
X10986729Y-11960293D02*
X10977205Y-11998388D01*
X10977205Y-11998388D02*
X10967682Y-12017436D01*
X10967682Y-12017436D02*
X10958158Y-12026960D01*
X10958158Y-12026960D02*
X10939110Y-12036484D01*
X10939110Y-12036484D02*
X10920063Y-12036484D01*
X10920063Y-12036484D02*
X10901015Y-12026960D01*
X10901015Y-12026960D02*
X10891491Y-12017436D01*
X10891491Y-12017436D02*
X10881967Y-11998388D01*
X10881967Y-11998388D02*
X10872444Y-11960293D01*
X10872444Y-11960293D02*
X10872444Y-11912674D01*
X10872444Y-11912674D02*
X10881967Y-11874579D01*
X10881967Y-11874579D02*
X10891491Y-11855531D01*
X10891491Y-11855531D02*
X10901015Y-11846008D01*
X10901015Y-11846008D02*
X10920063Y-11836484D01*
X11110539Y-11836484D02*
X11129586Y-11836484D01*
X11129586Y-11836484D02*
X11148634Y-11846008D01*
X11148634Y-11846008D02*
X11158158Y-11855531D01*
X11158158Y-11855531D02*
X11167682Y-11874579D01*
X11167682Y-11874579D02*
X11177205Y-11912674D01*
X11177205Y-11912674D02*
X11177205Y-11960293D01*
X11177205Y-11960293D02*
X11167682Y-11998388D01*
X11167682Y-11998388D02*
X11158158Y-12017436D01*
X11158158Y-12017436D02*
X11148634Y-12026960D01*
X11148634Y-12026960D02*
X11129586Y-12036484D01*
X11129586Y-12036484D02*
X11110539Y-12036484D01*
X11110539Y-12036484D02*
X11091491Y-12026960D01*
X11091491Y-12026960D02*
X11081967Y-12017436D01*
X11081967Y-12017436D02*
X11072444Y-11998388D01*
X11072444Y-11998388D02*
X11062920Y-11960293D01*
X11062920Y-11960293D02*
X11062920Y-11912674D01*
X11062920Y-11912674D02*
X11072444Y-11874579D01*
X11072444Y-11874579D02*
X11081967Y-11855531D01*
X11081967Y-11855531D02*
X11091491Y-11846008D01*
X11091491Y-11846008D02*
X11110539Y-11836484D01*
X11262920Y-12036484D02*
X11262920Y-11903150D01*
X11262920Y-11922198D02*
X11272443Y-11912674D01*
X11272443Y-11912674D02*
X11291491Y-11903150D01*
X11291491Y-11903150D02*
X11320063Y-11903150D01*
X11320063Y-11903150D02*
X11339110Y-11912674D01*
X11339110Y-11912674D02*
X11348634Y-11931722D01*
X11348634Y-11931722D02*
X11348634Y-12036484D01*
X11348634Y-11931722D02*
X11358158Y-11912674D01*
X11358158Y-11912674D02*
X11377205Y-11903150D01*
X11377205Y-11903150D02*
X11405777Y-11903150D01*
X11405777Y-11903150D02*
X11424824Y-11912674D01*
X11424824Y-11912674D02*
X11434348Y-11931722D01*
X11434348Y-11931722D02*
X11434348Y-12036484D01*
X11529586Y-12036484D02*
X11529586Y-11903150D01*
X11529586Y-11922198D02*
X11539110Y-11912674D01*
X11539110Y-11912674D02*
X11558158Y-11903150D01*
X11558158Y-11903150D02*
X11586729Y-11903150D01*
X11586729Y-11903150D02*
X11605777Y-11912674D01*
X11605777Y-11912674D02*
X11615301Y-11931722D01*
X11615301Y-11931722D02*
X11615301Y-12036484D01*
X11615301Y-11931722D02*
X11624824Y-11912674D01*
X11624824Y-11912674D02*
X11643872Y-11903150D01*
X11643872Y-11903150D02*
X11672443Y-11903150D01*
X11672443Y-11903150D02*
X11691491Y-11912674D01*
X11691491Y-11912674D02*
X11701015Y-11931722D01*
X11701015Y-11931722D02*
X11701015Y-12036484D01*
X12091491Y-11826960D02*
X11920063Y-12084103D01*
X12348634Y-11836484D02*
X12367682Y-11836484D01*
X12367682Y-11836484D02*
X12386729Y-11846008D01*
X12386729Y-11846008D02*
X12396253Y-11855531D01*
X12396253Y-11855531D02*
X12405777Y-11874579D01*
X12405777Y-11874579D02*
X12415301Y-11912674D01*
X12415301Y-11912674D02*
X12415301Y-11960293D01*
X12415301Y-11960293D02*
X12405777Y-11998388D01*
X12405777Y-11998388D02*
X12396253Y-12017436D01*
X12396253Y-12017436D02*
X12386729Y-12026960D01*
X12386729Y-12026960D02*
X12367682Y-12036484D01*
X12367682Y-12036484D02*
X12348634Y-12036484D01*
X12348634Y-12036484D02*
X12329586Y-12026960D01*
X12329586Y-12026960D02*
X12320063Y-12017436D01*
X12320063Y-12017436D02*
X12310539Y-11998388D01*
X12310539Y-11998388D02*
X12301015Y-11960293D01*
X12301015Y-11960293D02*
X12301015Y-11912674D01*
X12301015Y-11912674D02*
X12310539Y-11874579D01*
X12310539Y-11874579D02*
X12320063Y-11855531D01*
X12320063Y-11855531D02*
X12329586Y-11846008D01*
X12329586Y-11846008D02*
X12348634Y-11836484D01*
X12501015Y-12017436D02*
X12510539Y-12026960D01*
X12510539Y-12026960D02*
X12501015Y-12036484D01*
X12501015Y-12036484D02*
X12491491Y-12026960D01*
X12491491Y-12026960D02*
X12501015Y-12017436D01*
X12501015Y-12017436D02*
X12501015Y-12036484D01*
X12701015Y-12036484D02*
X12586729Y-12036484D01*
X12643872Y-12036484D02*
X12643872Y-11836484D01*
X12643872Y-11836484D02*
X12624825Y-11865055D01*
X12624825Y-11865055D02*
X12605777Y-11884103D01*
X12605777Y-11884103D02*
X12586729Y-11893627D01*
X12777206Y-11855531D02*
X12786729Y-11846008D01*
X12786729Y-11846008D02*
X12805777Y-11836484D01*
X12805777Y-11836484D02*
X12853396Y-11836484D01*
X12853396Y-11836484D02*
X12872444Y-11846008D01*
X12872444Y-11846008D02*
X12881967Y-11855531D01*
X12881967Y-11855531D02*
X12891491Y-11874579D01*
X12891491Y-11874579D02*
X12891491Y-11893627D01*
X12891491Y-11893627D02*
X12881967Y-11922198D01*
X12881967Y-11922198D02*
X12767682Y-12036484D01*
X12767682Y-12036484D02*
X12891491Y-12036484D01*
X13062920Y-11836484D02*
X13024825Y-11836484D01*
X13024825Y-11836484D02*
X13005777Y-11846008D01*
X13005777Y-11846008D02*
X12996253Y-11855531D01*
X12996253Y-11855531D02*
X12977206Y-11884103D01*
X12977206Y-11884103D02*
X12967682Y-11922198D01*
X12967682Y-11922198D02*
X12967682Y-11998388D01*
X12967682Y-11998388D02*
X12977206Y-12017436D01*
X12977206Y-12017436D02*
X12986729Y-12026960D01*
X12986729Y-12026960D02*
X13005777Y-12036484D01*
X13005777Y-12036484D02*
X13043872Y-12036484D01*
X13043872Y-12036484D02*
X13062920Y-12026960D01*
X13062920Y-12026960D02*
X13072444Y-12017436D01*
X13072444Y-12017436D02*
X13081967Y-11998388D01*
X13081967Y-11998388D02*
X13081967Y-11950769D01*
X13081967Y-11950769D02*
X13072444Y-11931722D01*
X13072444Y-11931722D02*
X13062920Y-11922198D01*
X13062920Y-11922198D02*
X13043872Y-11912674D01*
X13043872Y-11912674D02*
X13005777Y-11912674D01*
X13005777Y-11912674D02*
X12986729Y-11922198D01*
X12986729Y-11922198D02*
X12977206Y-11931722D01*
X12977206Y-11931722D02*
X12967682Y-11950769D01*
X13205777Y-11836484D02*
X13224825Y-11836484D01*
X13224825Y-11836484D02*
X13243872Y-11846008D01*
X13243872Y-11846008D02*
X13253396Y-11855531D01*
X13253396Y-11855531D02*
X13262920Y-11874579D01*
X13262920Y-11874579D02*
X13272444Y-11912674D01*
X13272444Y-11912674D02*
X13272444Y-11960293D01*
X13272444Y-11960293D02*
X13262920Y-11998388D01*
X13262920Y-11998388D02*
X13253396Y-12017436D01*
X13253396Y-12017436D02*
X13243872Y-12026960D01*
X13243872Y-12026960D02*
X13224825Y-12036484D01*
X13224825Y-12036484D02*
X13205777Y-12036484D01*
X13205777Y-12036484D02*
X13186729Y-12026960D01*
X13186729Y-12026960D02*
X13177206Y-12017436D01*
X13177206Y-12017436D02*
X13167682Y-11998388D01*
X13167682Y-11998388D02*
X13158158Y-11960293D01*
X13158158Y-11960293D02*
X13158158Y-11912674D01*
X13158158Y-11912674D02*
X13167682Y-11874579D01*
X13167682Y-11874579D02*
X13177206Y-11855531D01*
X13177206Y-11855531D02*
X13186729Y-11846008D01*
X13186729Y-11846008D02*
X13205777Y-11836484D01*
X13348634Y-11836484D02*
X13348634Y-11874579D01*
X13424825Y-11836484D02*
X13424825Y-11874579D01*
X13720063Y-12112674D02*
X13710539Y-12103150D01*
X13710539Y-12103150D02*
X13691491Y-12074579D01*
X13691491Y-12074579D02*
X13681968Y-12055531D01*
X13681968Y-12055531D02*
X13672444Y-12026960D01*
X13672444Y-12026960D02*
X13662920Y-11979341D01*
X13662920Y-11979341D02*
X13662920Y-11941246D01*
X13662920Y-11941246D02*
X13672444Y-11893627D01*
X13672444Y-11893627D02*
X13681968Y-11865055D01*
X13681968Y-11865055D02*
X13691491Y-11846008D01*
X13691491Y-11846008D02*
X13710539Y-11817436D01*
X13710539Y-11817436D02*
X13720063Y-11807912D01*
X13777206Y-11836484D02*
X13901015Y-11836484D01*
X13901015Y-11836484D02*
X13834348Y-11912674D01*
X13834348Y-11912674D02*
X13862920Y-11912674D01*
X13862920Y-11912674D02*
X13881968Y-11922198D01*
X13881968Y-11922198D02*
X13891491Y-11931722D01*
X13891491Y-11931722D02*
X13901015Y-11950769D01*
X13901015Y-11950769D02*
X13901015Y-11998388D01*
X13901015Y-11998388D02*
X13891491Y-12017436D01*
X13891491Y-12017436D02*
X13881968Y-12026960D01*
X13881968Y-12026960D02*
X13862920Y-12036484D01*
X13862920Y-12036484D02*
X13805777Y-12036484D01*
X13805777Y-12036484D02*
X13786729Y-12026960D01*
X13786729Y-12026960D02*
X13777206Y-12017436D01*
X14139110Y-12036484D02*
X14139110Y-11836484D01*
X14224825Y-12036484D02*
X14224825Y-11931722D01*
X14224825Y-11931722D02*
X14215301Y-11912674D01*
X14215301Y-11912674D02*
X14196253Y-11903150D01*
X14196253Y-11903150D02*
X14167682Y-11903150D01*
X14167682Y-11903150D02*
X14148634Y-11912674D01*
X14148634Y-11912674D02*
X14139110Y-11922198D01*
X14348634Y-12036484D02*
X14329587Y-12026960D01*
X14329587Y-12026960D02*
X14320063Y-12017436D01*
X14320063Y-12017436D02*
X14310539Y-11998388D01*
X14310539Y-11998388D02*
X14310539Y-11941246D01*
X14310539Y-11941246D02*
X14320063Y-11922198D01*
X14320063Y-11922198D02*
X14329587Y-11912674D01*
X14329587Y-11912674D02*
X14348634Y-11903150D01*
X14348634Y-11903150D02*
X14377206Y-11903150D01*
X14377206Y-11903150D02*
X14396253Y-11912674D01*
X14396253Y-11912674D02*
X14405777Y-11922198D01*
X14405777Y-11922198D02*
X14415301Y-11941246D01*
X14415301Y-11941246D02*
X14415301Y-11998388D01*
X14415301Y-11998388D02*
X14405777Y-12017436D01*
X14405777Y-12017436D02*
X14396253Y-12026960D01*
X14396253Y-12026960D02*
X14377206Y-12036484D01*
X14377206Y-12036484D02*
X14348634Y-12036484D01*
X14529587Y-12036484D02*
X14510539Y-12026960D01*
X14510539Y-12026960D02*
X14501015Y-12007912D01*
X14501015Y-12007912D02*
X14501015Y-11836484D01*
X14681968Y-12026960D02*
X14662920Y-12036484D01*
X14662920Y-12036484D02*
X14624825Y-12036484D01*
X14624825Y-12036484D02*
X14605777Y-12026960D01*
X14605777Y-12026960D02*
X14596253Y-12007912D01*
X14596253Y-12007912D02*
X14596253Y-11931722D01*
X14596253Y-11931722D02*
X14605777Y-11912674D01*
X14605777Y-11912674D02*
X14624825Y-11903150D01*
X14624825Y-11903150D02*
X14662920Y-11903150D01*
X14662920Y-11903150D02*
X14681968Y-11912674D01*
X14681968Y-11912674D02*
X14691491Y-11931722D01*
X14691491Y-11931722D02*
X14691491Y-11950769D01*
X14691491Y-11950769D02*
X14596253Y-11969817D01*
X14767682Y-12026960D02*
X14786730Y-12036484D01*
X14786730Y-12036484D02*
X14824825Y-12036484D01*
X14824825Y-12036484D02*
X14843872Y-12026960D01*
X14843872Y-12026960D02*
X14853396Y-12007912D01*
X14853396Y-12007912D02*
X14853396Y-11998388D01*
X14853396Y-11998388D02*
X14843872Y-11979341D01*
X14843872Y-11979341D02*
X14824825Y-11969817D01*
X14824825Y-11969817D02*
X14796253Y-11969817D01*
X14796253Y-11969817D02*
X14777206Y-11960293D01*
X14777206Y-11960293D02*
X14767682Y-11941246D01*
X14767682Y-11941246D02*
X14767682Y-11931722D01*
X14767682Y-11931722D02*
X14777206Y-11912674D01*
X14777206Y-11912674D02*
X14796253Y-11903150D01*
X14796253Y-11903150D02*
X14824825Y-11903150D01*
X14824825Y-11903150D02*
X14843872Y-11912674D01*
X14920063Y-12112674D02*
X14929587Y-12103150D01*
X14929587Y-12103150D02*
X14948634Y-12074579D01*
X14948634Y-12074579D02*
X14958158Y-12055531D01*
X14958158Y-12055531D02*
X14967682Y-12026960D01*
X14967682Y-12026960D02*
X14977206Y-11979341D01*
X14977206Y-11979341D02*
X14977206Y-11941246D01*
X14977206Y-11941246D02*
X14967682Y-11893627D01*
X14967682Y-11893627D02*
X14958158Y-11865055D01*
X14958158Y-11865055D02*
X14948634Y-11846008D01*
X14948634Y-11846008D02*
X14929587Y-11817436D01*
X14929587Y-11817436D02*
X14920063Y-11807912D01*
X15281968Y-12112674D02*
X15272444Y-12103150D01*
X15272444Y-12103150D02*
X15253396Y-12074579D01*
X15253396Y-12074579D02*
X15243872Y-12055531D01*
X15243872Y-12055531D02*
X15234349Y-12026960D01*
X15234349Y-12026960D02*
X15224825Y-11979341D01*
X15224825Y-11979341D02*
X15224825Y-11941246D01*
X15224825Y-11941246D02*
X15234349Y-11893627D01*
X15234349Y-11893627D02*
X15243872Y-11865055D01*
X15243872Y-11865055D02*
X15253396Y-11846008D01*
X15253396Y-11846008D02*
X15272444Y-11817436D01*
X15272444Y-11817436D02*
X15281968Y-11807912D01*
X15358158Y-11903150D02*
X15358158Y-12036484D01*
X15358158Y-11922198D02*
X15367682Y-11912674D01*
X15367682Y-11912674D02*
X15386730Y-11903150D01*
X15386730Y-11903150D02*
X15415301Y-11903150D01*
X15415301Y-11903150D02*
X15434349Y-11912674D01*
X15434349Y-11912674D02*
X15443872Y-11931722D01*
X15443872Y-11931722D02*
X15443872Y-12036484D01*
X15567682Y-12036484D02*
X15548634Y-12026960D01*
X15548634Y-12026960D02*
X15539111Y-12017436D01*
X15539111Y-12017436D02*
X15529587Y-11998388D01*
X15529587Y-11998388D02*
X15529587Y-11941246D01*
X15529587Y-11941246D02*
X15539111Y-11922198D01*
X15539111Y-11922198D02*
X15548634Y-11912674D01*
X15548634Y-11912674D02*
X15567682Y-11903150D01*
X15567682Y-11903150D02*
X15596253Y-11903150D01*
X15596253Y-11903150D02*
X15615301Y-11912674D01*
X15615301Y-11912674D02*
X15624825Y-11922198D01*
X15624825Y-11922198D02*
X15634349Y-11941246D01*
X15634349Y-11941246D02*
X15634349Y-11998388D01*
X15634349Y-11998388D02*
X15624825Y-12017436D01*
X15624825Y-12017436D02*
X15615301Y-12026960D01*
X15615301Y-12026960D02*
X15596253Y-12036484D01*
X15596253Y-12036484D02*
X15567682Y-12036484D01*
X15691492Y-11903150D02*
X15767682Y-11903150D01*
X15720063Y-11836484D02*
X15720063Y-12007912D01*
X15720063Y-12007912D02*
X15729587Y-12026960D01*
X15729587Y-12026960D02*
X15748634Y-12036484D01*
X15748634Y-12036484D02*
X15767682Y-12036484D01*
X15986730Y-11903150D02*
X15986730Y-12103150D01*
X15986730Y-11912674D02*
X16005777Y-11903150D01*
X16005777Y-11903150D02*
X16043873Y-11903150D01*
X16043873Y-11903150D02*
X16062920Y-11912674D01*
X16062920Y-11912674D02*
X16072444Y-11922198D01*
X16072444Y-11922198D02*
X16081968Y-11941246D01*
X16081968Y-11941246D02*
X16081968Y-11998388D01*
X16081968Y-11998388D02*
X16072444Y-12017436D01*
X16072444Y-12017436D02*
X16062920Y-12026960D01*
X16062920Y-12026960D02*
X16043873Y-12036484D01*
X16043873Y-12036484D02*
X16005777Y-12036484D01*
X16005777Y-12036484D02*
X15986730Y-12026960D01*
X16196253Y-12036484D02*
X16177206Y-12026960D01*
X16177206Y-12026960D02*
X16167682Y-12007912D01*
X16167682Y-12007912D02*
X16167682Y-11836484D01*
X16358158Y-12036484D02*
X16358158Y-11931722D01*
X16358158Y-11931722D02*
X16348634Y-11912674D01*
X16348634Y-11912674D02*
X16329587Y-11903150D01*
X16329587Y-11903150D02*
X16291492Y-11903150D01*
X16291492Y-11903150D02*
X16272444Y-11912674D01*
X16358158Y-12026960D02*
X16339111Y-12036484D01*
X16339111Y-12036484D02*
X16291492Y-12036484D01*
X16291492Y-12036484D02*
X16272444Y-12026960D01*
X16272444Y-12026960D02*
X16262920Y-12007912D01*
X16262920Y-12007912D02*
X16262920Y-11988865D01*
X16262920Y-11988865D02*
X16272444Y-11969817D01*
X16272444Y-11969817D02*
X16291492Y-11960293D01*
X16291492Y-11960293D02*
X16339111Y-11960293D01*
X16339111Y-11960293D02*
X16358158Y-11950769D01*
X16424825Y-11903150D02*
X16501015Y-11903150D01*
X16453396Y-11836484D02*
X16453396Y-12007912D01*
X16453396Y-12007912D02*
X16462920Y-12026960D01*
X16462920Y-12026960D02*
X16481968Y-12036484D01*
X16481968Y-12036484D02*
X16501015Y-12036484D01*
X16643873Y-12026960D02*
X16624825Y-12036484D01*
X16624825Y-12036484D02*
X16586730Y-12036484D01*
X16586730Y-12036484D02*
X16567682Y-12026960D01*
X16567682Y-12026960D02*
X16558158Y-12007912D01*
X16558158Y-12007912D02*
X16558158Y-11931722D01*
X16558158Y-11931722D02*
X16567682Y-11912674D01*
X16567682Y-11912674D02*
X16586730Y-11903150D01*
X16586730Y-11903150D02*
X16624825Y-11903150D01*
X16624825Y-11903150D02*
X16643873Y-11912674D01*
X16643873Y-11912674D02*
X16653396Y-11931722D01*
X16653396Y-11931722D02*
X16653396Y-11950769D01*
X16653396Y-11950769D02*
X16558158Y-11969817D01*
X16824825Y-12036484D02*
X16824825Y-11836484D01*
X16824825Y-12026960D02*
X16805777Y-12036484D01*
X16805777Y-12036484D02*
X16767682Y-12036484D01*
X16767682Y-12036484D02*
X16748634Y-12026960D01*
X16748634Y-12026960D02*
X16739111Y-12017436D01*
X16739111Y-12017436D02*
X16729587Y-11998388D01*
X16729587Y-11998388D02*
X16729587Y-11941246D01*
X16729587Y-11941246D02*
X16739111Y-11922198D01*
X16739111Y-11922198D02*
X16748634Y-11912674D01*
X16748634Y-11912674D02*
X16767682Y-11903150D01*
X16767682Y-11903150D02*
X16805777Y-11903150D01*
X16805777Y-11903150D02*
X16824825Y-11912674D01*
X16901016Y-12112674D02*
X16910539Y-12103150D01*
X16910539Y-12103150D02*
X16929587Y-12074579D01*
X16929587Y-12074579D02*
X16939111Y-12055531D01*
X16939111Y-12055531D02*
X16948635Y-12026960D01*
X16948635Y-12026960D02*
X16958158Y-11979341D01*
X16958158Y-11979341D02*
X16958158Y-11941246D01*
X16958158Y-11941246D02*
X16948635Y-11893627D01*
X16948635Y-11893627D02*
X16939111Y-11865055D01*
X16939111Y-11865055D02*
X16929587Y-11846008D01*
X16929587Y-11846008D02*
X16910539Y-11817436D01*
X16910539Y-11817436D02*
X16901016Y-11807912D01*
M02*
