G04 #@! TF.GenerationSoftware,KiCad,Pcbnew,7.0.11+1*
G04 #@! TF.CreationDate,2024-05-23T22:44:02+02:00*
G04 #@! TF.ProjectId,pcb_shield,7063625f-7368-4696-956c-642e6b696361,rev?*
G04 #@! TF.SameCoordinates,Original*
G04 #@! TF.FileFunction,Legend,Top*
G04 #@! TF.FilePolarity,Positive*
%FSLAX46Y46*%
G04 Gerber Fmt 4.6, Leading zero omitted, Abs format (unit mm)*
G04 Created by KiCad (PCBNEW 7.0.11+1) date 2024-05-23 22:44:02*
%MOMM*%
%LPD*%
G01*
G04 APERTURE LIST*
%ADD10C,0.150000*%
%ADD11C,0.120000*%
%ADD12R,1.700000X1.700000*%
%ADD13O,1.700000X1.700000*%
%ADD14C,3.200000*%
G04 APERTURE END LIST*
D10*
X134598446Y-67469819D02*
X135169874Y-67469819D01*
X134884160Y-68469819D02*
X134884160Y-67469819D01*
X135407970Y-67469819D02*
X136074636Y-68469819D01*
X136074636Y-67469819D02*
X135407970Y-68469819D01*
X124470112Y-87559188D02*
X124374874Y-87511569D01*
X124374874Y-87511569D02*
X124232017Y-87511569D01*
X124232017Y-87511569D02*
X124089160Y-87559188D01*
X124089160Y-87559188D02*
X123993922Y-87654426D01*
X123993922Y-87654426D02*
X123946303Y-87749664D01*
X123946303Y-87749664D02*
X123898684Y-87940140D01*
X123898684Y-87940140D02*
X123898684Y-88082997D01*
X123898684Y-88082997D02*
X123946303Y-88273473D01*
X123946303Y-88273473D02*
X123993922Y-88368711D01*
X123993922Y-88368711D02*
X124089160Y-88463950D01*
X124089160Y-88463950D02*
X124232017Y-88511569D01*
X124232017Y-88511569D02*
X124327255Y-88511569D01*
X124327255Y-88511569D02*
X124470112Y-88463950D01*
X124470112Y-88463950D02*
X124517731Y-88416330D01*
X124517731Y-88416330D02*
X124517731Y-88082997D01*
X124517731Y-88082997D02*
X124327255Y-88082997D01*
X124946303Y-88511569D02*
X124946303Y-87511569D01*
X124946303Y-87511569D02*
X125517731Y-88511569D01*
X125517731Y-88511569D02*
X125517731Y-87511569D01*
X125993922Y-88511569D02*
X125993922Y-87511569D01*
X125993922Y-87511569D02*
X126232017Y-87511569D01*
X126232017Y-87511569D02*
X126374874Y-87559188D01*
X126374874Y-87559188D02*
X126470112Y-87654426D01*
X126470112Y-87654426D02*
X126517731Y-87749664D01*
X126517731Y-87749664D02*
X126565350Y-87940140D01*
X126565350Y-87940140D02*
X126565350Y-88082997D01*
X126565350Y-88082997D02*
X126517731Y-88273473D01*
X126517731Y-88273473D02*
X126470112Y-88368711D01*
X126470112Y-88368711D02*
X126374874Y-88463950D01*
X126374874Y-88463950D02*
X126232017Y-88511569D01*
X126232017Y-88511569D02*
X125993922Y-88511569D01*
X126089160Y-81065854D02*
X126565350Y-81065854D01*
X125993922Y-81351569D02*
X126327255Y-80351569D01*
X126327255Y-80351569D02*
X126660588Y-81351569D01*
X140535588Y-67517438D02*
X140440350Y-67469819D01*
X140440350Y-67469819D02*
X140297493Y-67469819D01*
X140297493Y-67469819D02*
X140154636Y-67517438D01*
X140154636Y-67517438D02*
X140059398Y-67612676D01*
X140059398Y-67612676D02*
X140011779Y-67707914D01*
X140011779Y-67707914D02*
X139964160Y-67898390D01*
X139964160Y-67898390D02*
X139964160Y-68041247D01*
X139964160Y-68041247D02*
X140011779Y-68231723D01*
X140011779Y-68231723D02*
X140059398Y-68326961D01*
X140059398Y-68326961D02*
X140154636Y-68422200D01*
X140154636Y-68422200D02*
X140297493Y-68469819D01*
X140297493Y-68469819D02*
X140392731Y-68469819D01*
X140392731Y-68469819D02*
X140535588Y-68422200D01*
X140535588Y-68422200D02*
X140583207Y-68374580D01*
X140583207Y-68374580D02*
X140583207Y-68041247D01*
X140583207Y-68041247D02*
X140392731Y-68041247D01*
X126089160Y-93305854D02*
X126565350Y-93305854D01*
X125993922Y-93591569D02*
X126327255Y-92591569D01*
X126327255Y-92591569D02*
X126660588Y-93591569D01*
X125041541Y-78287759D02*
X125374874Y-78287759D01*
X125517731Y-78811569D02*
X125041541Y-78811569D01*
X125041541Y-78811569D02*
X125041541Y-77811569D01*
X125041541Y-77811569D02*
X125517731Y-77811569D01*
X125946303Y-78811569D02*
X125946303Y-77811569D01*
X125946303Y-77811569D02*
X126517731Y-78811569D01*
X126517731Y-78811569D02*
X126517731Y-77811569D01*
X133473524Y-105917457D02*
X133425905Y-106012695D01*
X133425905Y-106012695D02*
X133425905Y-106155552D01*
X133425905Y-106155552D02*
X133473524Y-106298409D01*
X133473524Y-106298409D02*
X133568762Y-106393647D01*
X133568762Y-106393647D02*
X133664000Y-106441266D01*
X133664000Y-106441266D02*
X133854476Y-106488885D01*
X133854476Y-106488885D02*
X133997333Y-106488885D01*
X133997333Y-106488885D02*
X134187809Y-106441266D01*
X134187809Y-106441266D02*
X134283047Y-106393647D01*
X134283047Y-106393647D02*
X134378286Y-106298409D01*
X134378286Y-106298409D02*
X134425905Y-106155552D01*
X134425905Y-106155552D02*
X134425905Y-106060314D01*
X134425905Y-106060314D02*
X134378286Y-105917457D01*
X134378286Y-105917457D02*
X134330666Y-105869838D01*
X134330666Y-105869838D02*
X133997333Y-105869838D01*
X133997333Y-105869838D02*
X133997333Y-106060314D01*
X134425905Y-105441266D02*
X133425905Y-105441266D01*
X133425905Y-105441266D02*
X134425905Y-104869838D01*
X134425905Y-104869838D02*
X133425905Y-104869838D01*
X134425905Y-104393647D02*
X133425905Y-104393647D01*
X133425905Y-104393647D02*
X133425905Y-104155552D01*
X133425905Y-104155552D02*
X133473524Y-104012695D01*
X133473524Y-104012695D02*
X133568762Y-103917457D01*
X133568762Y-103917457D02*
X133664000Y-103869838D01*
X133664000Y-103869838D02*
X133854476Y-103822219D01*
X133854476Y-103822219D02*
X133997333Y-103822219D01*
X133997333Y-103822219D02*
X134187809Y-103869838D01*
X134187809Y-103869838D02*
X134283047Y-103917457D01*
X134283047Y-103917457D02*
X134378286Y-104012695D01*
X134378286Y-104012695D02*
X134425905Y-104155552D01*
X134425905Y-104155552D02*
X134425905Y-104393647D01*
X126327255Y-83367759D02*
X126470112Y-83415378D01*
X126470112Y-83415378D02*
X126517731Y-83462997D01*
X126517731Y-83462997D02*
X126565350Y-83558235D01*
X126565350Y-83558235D02*
X126565350Y-83701092D01*
X126565350Y-83701092D02*
X126517731Y-83796330D01*
X126517731Y-83796330D02*
X126470112Y-83843950D01*
X126470112Y-83843950D02*
X126374874Y-83891569D01*
X126374874Y-83891569D02*
X125993922Y-83891569D01*
X125993922Y-83891569D02*
X125993922Y-82891569D01*
X125993922Y-82891569D02*
X126327255Y-82891569D01*
X126327255Y-82891569D02*
X126422493Y-82939188D01*
X126422493Y-82939188D02*
X126470112Y-82986807D01*
X126470112Y-82986807D02*
X126517731Y-83082045D01*
X126517731Y-83082045D02*
X126517731Y-83177283D01*
X126517731Y-83177283D02*
X126470112Y-83272521D01*
X126470112Y-83272521D02*
X126422493Y-83320140D01*
X126422493Y-83320140D02*
X126327255Y-83367759D01*
X126327255Y-83367759D02*
X125993922Y-83367759D01*
X126327255Y-95607759D02*
X126470112Y-95655378D01*
X126470112Y-95655378D02*
X126517731Y-95702997D01*
X126517731Y-95702997D02*
X126565350Y-95798235D01*
X126565350Y-95798235D02*
X126565350Y-95941092D01*
X126565350Y-95941092D02*
X126517731Y-96036330D01*
X126517731Y-96036330D02*
X126470112Y-96083950D01*
X126470112Y-96083950D02*
X126374874Y-96131569D01*
X126374874Y-96131569D02*
X125993922Y-96131569D01*
X125993922Y-96131569D02*
X125993922Y-95131569D01*
X125993922Y-95131569D02*
X126327255Y-95131569D01*
X126327255Y-95131569D02*
X126422493Y-95179188D01*
X126422493Y-95179188D02*
X126470112Y-95226807D01*
X126470112Y-95226807D02*
X126517731Y-95322045D01*
X126517731Y-95322045D02*
X126517731Y-95417283D01*
X126517731Y-95417283D02*
X126470112Y-95512521D01*
X126470112Y-95512521D02*
X126422493Y-95560140D01*
X126422493Y-95560140D02*
X126327255Y-95607759D01*
X126327255Y-95607759D02*
X125993922Y-95607759D01*
X136788866Y-106363220D02*
X136788866Y-105601316D01*
X137169819Y-105982268D02*
X136407914Y-105982268D01*
X136169819Y-104648935D02*
X136169819Y-105125125D01*
X136169819Y-105125125D02*
X136646009Y-105172744D01*
X136646009Y-105172744D02*
X136598390Y-105125125D01*
X136598390Y-105125125D02*
X136550771Y-105029887D01*
X136550771Y-105029887D02*
X136550771Y-104791792D01*
X136550771Y-104791792D02*
X136598390Y-104696554D01*
X136598390Y-104696554D02*
X136646009Y-104648935D01*
X136646009Y-104648935D02*
X136741247Y-104601316D01*
X136741247Y-104601316D02*
X136979342Y-104601316D01*
X136979342Y-104601316D02*
X137074580Y-104648935D01*
X137074580Y-104648935D02*
X137122200Y-104696554D01*
X137122200Y-104696554D02*
X137169819Y-104791792D01*
X137169819Y-104791792D02*
X137169819Y-105029887D01*
X137169819Y-105029887D02*
X137122200Y-105125125D01*
X137122200Y-105125125D02*
X137074580Y-105172744D01*
X136169819Y-104315601D02*
X137169819Y-103982268D01*
X137169819Y-103982268D02*
X136169819Y-103648935D01*
X123946303Y-90670616D02*
X124708208Y-90670616D01*
X124327255Y-91051569D02*
X124327255Y-90289664D01*
X125660588Y-90051569D02*
X125184398Y-90051569D01*
X125184398Y-90051569D02*
X125136779Y-90527759D01*
X125136779Y-90527759D02*
X125184398Y-90480140D01*
X125184398Y-90480140D02*
X125279636Y-90432521D01*
X125279636Y-90432521D02*
X125517731Y-90432521D01*
X125517731Y-90432521D02*
X125612969Y-90480140D01*
X125612969Y-90480140D02*
X125660588Y-90527759D01*
X125660588Y-90527759D02*
X125708207Y-90622997D01*
X125708207Y-90622997D02*
X125708207Y-90861092D01*
X125708207Y-90861092D02*
X125660588Y-90956330D01*
X125660588Y-90956330D02*
X125612969Y-91003950D01*
X125612969Y-91003950D02*
X125517731Y-91051569D01*
X125517731Y-91051569D02*
X125279636Y-91051569D01*
X125279636Y-91051569D02*
X125184398Y-91003950D01*
X125184398Y-91003950D02*
X125136779Y-90956330D01*
X125993922Y-90051569D02*
X126327255Y-91051569D01*
X126327255Y-91051569D02*
X126660588Y-90051569D01*
X141936779Y-102071569D02*
X141936779Y-101071569D01*
X141936779Y-101071569D02*
X142317731Y-101071569D01*
X142317731Y-101071569D02*
X142412969Y-101119188D01*
X142412969Y-101119188D02*
X142460588Y-101166807D01*
X142460588Y-101166807D02*
X142508207Y-101262045D01*
X142508207Y-101262045D02*
X142508207Y-101404902D01*
X142508207Y-101404902D02*
X142460588Y-101500140D01*
X142460588Y-101500140D02*
X142412969Y-101547759D01*
X142412969Y-101547759D02*
X142317731Y-101595378D01*
X142317731Y-101595378D02*
X141936779Y-101595378D01*
X142841541Y-101071569D02*
X143079636Y-102071569D01*
X143079636Y-102071569D02*
X143270112Y-101357283D01*
X143270112Y-101357283D02*
X143460588Y-102071569D01*
X143460588Y-102071569D02*
X143698684Y-101071569D01*
X144651064Y-102071569D02*
X144317731Y-101595378D01*
X144079636Y-102071569D02*
X144079636Y-101071569D01*
X144079636Y-101071569D02*
X144460588Y-101071569D01*
X144460588Y-101071569D02*
X144555826Y-101119188D01*
X144555826Y-101119188D02*
X144603445Y-101166807D01*
X144603445Y-101166807D02*
X144651064Y-101262045D01*
X144651064Y-101262045D02*
X144651064Y-101404902D01*
X144651064Y-101404902D02*
X144603445Y-101500140D01*
X144603445Y-101500140D02*
X144555826Y-101547759D01*
X144555826Y-101547759D02*
X144460588Y-101595378D01*
X144460588Y-101595378D02*
X144079636Y-101595378D01*
X144841541Y-102166807D02*
X145603445Y-102166807D01*
X145841541Y-102071569D02*
X145841541Y-101071569D01*
X146317731Y-102071569D02*
X146317731Y-101071569D01*
X146317731Y-101071569D02*
X146889159Y-102071569D01*
X146889159Y-102071569D02*
X146889159Y-101071569D01*
X147365350Y-102071569D02*
X147365350Y-101071569D01*
X147365350Y-101071569D02*
X147746302Y-101071569D01*
X147746302Y-101071569D02*
X147841540Y-101119188D01*
X147841540Y-101119188D02*
X147889159Y-101166807D01*
X147889159Y-101166807D02*
X147936778Y-101262045D01*
X147936778Y-101262045D02*
X147936778Y-101404902D01*
X147936778Y-101404902D02*
X147889159Y-101500140D01*
X147889159Y-101500140D02*
X147841540Y-101547759D01*
X147841540Y-101547759D02*
X147746302Y-101595378D01*
X147746302Y-101595378D02*
X147365350Y-101595378D01*
X148365350Y-101071569D02*
X148365350Y-101881092D01*
X148365350Y-101881092D02*
X148412969Y-101976330D01*
X148412969Y-101976330D02*
X148460588Y-102023950D01*
X148460588Y-102023950D02*
X148555826Y-102071569D01*
X148555826Y-102071569D02*
X148746302Y-102071569D01*
X148746302Y-102071569D02*
X148841540Y-102023950D01*
X148841540Y-102023950D02*
X148889159Y-101976330D01*
X148889159Y-101976330D02*
X148936778Y-101881092D01*
X148936778Y-101881092D02*
X148936778Y-101071569D01*
X149270112Y-101071569D02*
X149841540Y-101071569D01*
X149555826Y-102071569D02*
X149555826Y-101071569D01*
X137805112Y-67469819D02*
X137328922Y-67469819D01*
X137328922Y-67469819D02*
X137281303Y-67946009D01*
X137281303Y-67946009D02*
X137328922Y-67898390D01*
X137328922Y-67898390D02*
X137424160Y-67850771D01*
X137424160Y-67850771D02*
X137662255Y-67850771D01*
X137662255Y-67850771D02*
X137757493Y-67898390D01*
X137757493Y-67898390D02*
X137805112Y-67946009D01*
X137805112Y-67946009D02*
X137852731Y-68041247D01*
X137852731Y-68041247D02*
X137852731Y-68279342D01*
X137852731Y-68279342D02*
X137805112Y-68374580D01*
X137805112Y-68374580D02*
X137757493Y-68422200D01*
X137757493Y-68422200D02*
X137662255Y-68469819D01*
X137662255Y-68469819D02*
X137424160Y-68469819D01*
X137424160Y-68469819D02*
X137328922Y-68422200D01*
X137328922Y-68422200D02*
X137281303Y-68374580D01*
X138138446Y-67469819D02*
X138471779Y-68469819D01*
X138471779Y-68469819D02*
X138805112Y-67469819D01*
X132487017Y-68469819D02*
X132153684Y-67993628D01*
X131915589Y-68469819D02*
X131915589Y-67469819D01*
X131915589Y-67469819D02*
X132296541Y-67469819D01*
X132296541Y-67469819D02*
X132391779Y-67517438D01*
X132391779Y-67517438D02*
X132439398Y-67565057D01*
X132439398Y-67565057D02*
X132487017Y-67660295D01*
X132487017Y-67660295D02*
X132487017Y-67803152D01*
X132487017Y-67803152D02*
X132439398Y-67898390D01*
X132439398Y-67898390D02*
X132391779Y-67946009D01*
X132391779Y-67946009D02*
X132296541Y-67993628D01*
X132296541Y-67993628D02*
X131915589Y-67993628D01*
X132820351Y-67469819D02*
X133487017Y-68469819D01*
X133487017Y-67469819D02*
X132820351Y-68469819D01*
X139388866Y-107263220D02*
X139388866Y-106501316D01*
X139769819Y-106882268D02*
X139007914Y-106882268D01*
X139769819Y-105501316D02*
X139769819Y-106072744D01*
X139769819Y-105787030D02*
X138769819Y-105787030D01*
X138769819Y-105787030D02*
X138912676Y-105882268D01*
X138912676Y-105882268D02*
X139007914Y-105977506D01*
X139007914Y-105977506D02*
X139055533Y-106072744D01*
X138865057Y-105120363D02*
X138817438Y-105072744D01*
X138817438Y-105072744D02*
X138769819Y-104977506D01*
X138769819Y-104977506D02*
X138769819Y-104739411D01*
X138769819Y-104739411D02*
X138817438Y-104644173D01*
X138817438Y-104644173D02*
X138865057Y-104596554D01*
X138865057Y-104596554D02*
X138960295Y-104548935D01*
X138960295Y-104548935D02*
X139055533Y-104548935D01*
X139055533Y-104548935D02*
X139198390Y-104596554D01*
X139198390Y-104596554D02*
X139769819Y-105167982D01*
X139769819Y-105167982D02*
X139769819Y-104548935D01*
X138769819Y-104263220D02*
X139769819Y-103929887D01*
X139769819Y-103929887D02*
X138769819Y-103596554D01*
X141796433Y-85641009D02*
X141463100Y-85641009D01*
X141463100Y-86164819D02*
X141463100Y-85164819D01*
X141463100Y-85164819D02*
X141939290Y-85164819D01*
X142891671Y-86164819D02*
X142558338Y-85688628D01*
X142320243Y-86164819D02*
X142320243Y-85164819D01*
X142320243Y-85164819D02*
X142701195Y-85164819D01*
X142701195Y-85164819D02*
X142796433Y-85212438D01*
X142796433Y-85212438D02*
X142844052Y-85260057D01*
X142844052Y-85260057D02*
X142891671Y-85355295D01*
X142891671Y-85355295D02*
X142891671Y-85498152D01*
X142891671Y-85498152D02*
X142844052Y-85593390D01*
X142844052Y-85593390D02*
X142796433Y-85641009D01*
X142796433Y-85641009D02*
X142701195Y-85688628D01*
X142701195Y-85688628D02*
X142320243Y-85688628D01*
X143082148Y-86260057D02*
X143844052Y-86260057D01*
X144082148Y-85641009D02*
X144415481Y-85641009D01*
X144558338Y-86164819D02*
X144082148Y-86164819D01*
X144082148Y-86164819D02*
X144082148Y-85164819D01*
X144082148Y-85164819D02*
X144558338Y-85164819D01*
X145510719Y-86164819D02*
X144939291Y-86164819D01*
X145225005Y-86164819D02*
X145225005Y-85164819D01*
X145225005Y-85164819D02*
X145129767Y-85307676D01*
X145129767Y-85307676D02*
X145034529Y-85402914D01*
X145034529Y-85402914D02*
X144939291Y-85450533D01*
X127870242Y-85641009D02*
X128013099Y-85688628D01*
X128013099Y-85688628D02*
X128060718Y-85736247D01*
X128060718Y-85736247D02*
X128108337Y-85831485D01*
X128108337Y-85831485D02*
X128108337Y-85974342D01*
X128108337Y-85974342D02*
X128060718Y-86069580D01*
X128060718Y-86069580D02*
X128013099Y-86117200D01*
X128013099Y-86117200D02*
X127917861Y-86164819D01*
X127917861Y-86164819D02*
X127536909Y-86164819D01*
X127536909Y-86164819D02*
X127536909Y-85164819D01*
X127536909Y-85164819D02*
X127870242Y-85164819D01*
X127870242Y-85164819D02*
X127965480Y-85212438D01*
X127965480Y-85212438D02*
X128013099Y-85260057D01*
X128013099Y-85260057D02*
X128060718Y-85355295D01*
X128060718Y-85355295D02*
X128060718Y-85450533D01*
X128060718Y-85450533D02*
X128013099Y-85545771D01*
X128013099Y-85545771D02*
X127965480Y-85593390D01*
X127965480Y-85593390D02*
X127870242Y-85641009D01*
X127870242Y-85641009D02*
X127536909Y-85641009D01*
X129013099Y-86164819D02*
X128536909Y-86164819D01*
X128536909Y-86164819D02*
X128536909Y-85164819D01*
X129108338Y-86260057D02*
X129870242Y-86260057D01*
X130108338Y-85641009D02*
X130441671Y-85641009D01*
X130584528Y-86164819D02*
X130108338Y-86164819D01*
X130108338Y-86164819D02*
X130108338Y-85164819D01*
X130108338Y-85164819D02*
X130584528Y-85164819D01*
X131536909Y-86164819D02*
X130965481Y-86164819D01*
X131251195Y-86164819D02*
X131251195Y-85164819D01*
X131251195Y-85164819D02*
X131155957Y-85307676D01*
X131155957Y-85307676D02*
X131060719Y-85402914D01*
X131060719Y-85402914D02*
X130965481Y-85450533D01*
X137122623Y-75941009D02*
X136789290Y-75941009D01*
X136789290Y-76464819D02*
X136789290Y-75464819D01*
X136789290Y-75464819D02*
X137265480Y-75464819D01*
X138122623Y-76464819D02*
X137646433Y-76464819D01*
X137646433Y-76464819D02*
X137646433Y-75464819D01*
X138217862Y-76560057D02*
X138979766Y-76560057D01*
X139217862Y-76464819D02*
X139217862Y-75464819D01*
X139217862Y-75464819D02*
X139551195Y-76179104D01*
X139551195Y-76179104D02*
X139884528Y-75464819D01*
X139884528Y-75464819D02*
X139884528Y-76464819D01*
X140884528Y-76464819D02*
X140313100Y-76464819D01*
X140598814Y-76464819D02*
X140598814Y-75464819D01*
X140598814Y-75464819D02*
X140503576Y-75607676D01*
X140503576Y-75607676D02*
X140408338Y-75702914D01*
X140408338Y-75702914D02*
X140313100Y-75750533D01*
X127751195Y-75941009D02*
X127894052Y-75988628D01*
X127894052Y-75988628D02*
X127941671Y-76036247D01*
X127941671Y-76036247D02*
X127989290Y-76131485D01*
X127989290Y-76131485D02*
X127989290Y-76274342D01*
X127989290Y-76274342D02*
X127941671Y-76369580D01*
X127941671Y-76369580D02*
X127894052Y-76417200D01*
X127894052Y-76417200D02*
X127798814Y-76464819D01*
X127798814Y-76464819D02*
X127417862Y-76464819D01*
X127417862Y-76464819D02*
X127417862Y-75464819D01*
X127417862Y-75464819D02*
X127751195Y-75464819D01*
X127751195Y-75464819D02*
X127846433Y-75512438D01*
X127846433Y-75512438D02*
X127894052Y-75560057D01*
X127894052Y-75560057D02*
X127941671Y-75655295D01*
X127941671Y-75655295D02*
X127941671Y-75750533D01*
X127941671Y-75750533D02*
X127894052Y-75845771D01*
X127894052Y-75845771D02*
X127846433Y-75893390D01*
X127846433Y-75893390D02*
X127751195Y-75941009D01*
X127751195Y-75941009D02*
X127417862Y-75941009D01*
X128894052Y-76464819D02*
X128417862Y-76464819D01*
X128417862Y-76464819D02*
X128417862Y-75464819D01*
X128989291Y-76560057D02*
X129751195Y-76560057D01*
X129989291Y-76464819D02*
X129989291Y-75464819D01*
X129989291Y-75464819D02*
X130322624Y-76179104D01*
X130322624Y-76179104D02*
X130655957Y-75464819D01*
X130655957Y-75464819D02*
X130655957Y-76464819D01*
X131655957Y-76464819D02*
X131084529Y-76464819D01*
X131370243Y-76464819D02*
X131370243Y-75464819D01*
X131370243Y-75464819D02*
X131275005Y-75607676D01*
X131275005Y-75607676D02*
X131179767Y-75702914D01*
X131179767Y-75702914D02*
X131084529Y-75750533D01*
X132099819Y-103409523D02*
X131099819Y-103409523D01*
X131099819Y-103409523D02*
X131099819Y-103028571D01*
X131099819Y-103028571D02*
X131147438Y-102933333D01*
X131147438Y-102933333D02*
X131195057Y-102885714D01*
X131195057Y-102885714D02*
X131290295Y-102838095D01*
X131290295Y-102838095D02*
X131433152Y-102838095D01*
X131433152Y-102838095D02*
X131528390Y-102885714D01*
X131528390Y-102885714D02*
X131576009Y-102933333D01*
X131576009Y-102933333D02*
X131623628Y-103028571D01*
X131623628Y-103028571D02*
X131623628Y-103409523D01*
X131099819Y-102504761D02*
X132099819Y-102266666D01*
X132099819Y-102266666D02*
X131385533Y-102076190D01*
X131385533Y-102076190D02*
X132099819Y-101885714D01*
X132099819Y-101885714D02*
X131099819Y-101647619D01*
X132099819Y-100695238D02*
X131623628Y-101028571D01*
X132099819Y-101266666D02*
X131099819Y-101266666D01*
X131099819Y-101266666D02*
X131099819Y-100885714D01*
X131099819Y-100885714D02*
X131147438Y-100790476D01*
X131147438Y-100790476D02*
X131195057Y-100742857D01*
X131195057Y-100742857D02*
X131290295Y-100695238D01*
X131290295Y-100695238D02*
X131433152Y-100695238D01*
X131433152Y-100695238D02*
X131528390Y-100742857D01*
X131528390Y-100742857D02*
X131576009Y-100790476D01*
X131576009Y-100790476D02*
X131623628Y-100885714D01*
X131623628Y-100885714D02*
X131623628Y-101266666D01*
X132099819Y-99742857D02*
X132099819Y-100314285D01*
X132099819Y-100028571D02*
X131099819Y-100028571D01*
X131099819Y-100028571D02*
X131242676Y-100123809D01*
X131242676Y-100123809D02*
X131337914Y-100219047D01*
X131337914Y-100219047D02*
X131385533Y-100314285D01*
X141677385Y-75941009D02*
X141344052Y-75941009D01*
X141344052Y-76464819D02*
X141344052Y-75464819D01*
X141344052Y-75464819D02*
X141820242Y-75464819D01*
X142772623Y-76464819D02*
X142439290Y-75988628D01*
X142201195Y-76464819D02*
X142201195Y-75464819D01*
X142201195Y-75464819D02*
X142582147Y-75464819D01*
X142582147Y-75464819D02*
X142677385Y-75512438D01*
X142677385Y-75512438D02*
X142725004Y-75560057D01*
X142725004Y-75560057D02*
X142772623Y-75655295D01*
X142772623Y-75655295D02*
X142772623Y-75798152D01*
X142772623Y-75798152D02*
X142725004Y-75893390D01*
X142725004Y-75893390D02*
X142677385Y-75941009D01*
X142677385Y-75941009D02*
X142582147Y-75988628D01*
X142582147Y-75988628D02*
X142201195Y-75988628D01*
X142963100Y-76560057D02*
X143725004Y-76560057D01*
X143963100Y-76464819D02*
X143963100Y-75464819D01*
X143963100Y-75464819D02*
X144296433Y-76179104D01*
X144296433Y-76179104D02*
X144629766Y-75464819D01*
X144629766Y-75464819D02*
X144629766Y-76464819D01*
X145629766Y-76464819D02*
X145058338Y-76464819D01*
X145344052Y-76464819D02*
X145344052Y-75464819D01*
X145344052Y-75464819D02*
X145248814Y-75607676D01*
X145248814Y-75607676D02*
X145153576Y-75702914D01*
X145153576Y-75702914D02*
X145058338Y-75750533D01*
X132425004Y-85641009D02*
X132567861Y-85688628D01*
X132567861Y-85688628D02*
X132615480Y-85736247D01*
X132615480Y-85736247D02*
X132663099Y-85831485D01*
X132663099Y-85831485D02*
X132663099Y-85974342D01*
X132663099Y-85974342D02*
X132615480Y-86069580D01*
X132615480Y-86069580D02*
X132567861Y-86117200D01*
X132567861Y-86117200D02*
X132472623Y-86164819D01*
X132472623Y-86164819D02*
X132091671Y-86164819D01*
X132091671Y-86164819D02*
X132091671Y-85164819D01*
X132091671Y-85164819D02*
X132425004Y-85164819D01*
X132425004Y-85164819D02*
X132520242Y-85212438D01*
X132520242Y-85212438D02*
X132567861Y-85260057D01*
X132567861Y-85260057D02*
X132615480Y-85355295D01*
X132615480Y-85355295D02*
X132615480Y-85450533D01*
X132615480Y-85450533D02*
X132567861Y-85545771D01*
X132567861Y-85545771D02*
X132520242Y-85593390D01*
X132520242Y-85593390D02*
X132425004Y-85641009D01*
X132425004Y-85641009D02*
X132091671Y-85641009D01*
X133663099Y-86164819D02*
X133329766Y-85688628D01*
X133091671Y-86164819D02*
X133091671Y-85164819D01*
X133091671Y-85164819D02*
X133472623Y-85164819D01*
X133472623Y-85164819D02*
X133567861Y-85212438D01*
X133567861Y-85212438D02*
X133615480Y-85260057D01*
X133615480Y-85260057D02*
X133663099Y-85355295D01*
X133663099Y-85355295D02*
X133663099Y-85498152D01*
X133663099Y-85498152D02*
X133615480Y-85593390D01*
X133615480Y-85593390D02*
X133567861Y-85641009D01*
X133567861Y-85641009D02*
X133472623Y-85688628D01*
X133472623Y-85688628D02*
X133091671Y-85688628D01*
X133853576Y-86260057D02*
X134615480Y-86260057D01*
X134853576Y-85641009D02*
X135186909Y-85641009D01*
X135329766Y-86164819D02*
X134853576Y-86164819D01*
X134853576Y-86164819D02*
X134853576Y-85164819D01*
X134853576Y-85164819D02*
X135329766Y-85164819D01*
X136282147Y-86164819D02*
X135710719Y-86164819D01*
X135996433Y-86164819D02*
X135996433Y-85164819D01*
X135996433Y-85164819D02*
X135901195Y-85307676D01*
X135901195Y-85307676D02*
X135805957Y-85402914D01*
X135805957Y-85402914D02*
X135710719Y-85450533D01*
X132305957Y-75941009D02*
X132448814Y-75988628D01*
X132448814Y-75988628D02*
X132496433Y-76036247D01*
X132496433Y-76036247D02*
X132544052Y-76131485D01*
X132544052Y-76131485D02*
X132544052Y-76274342D01*
X132544052Y-76274342D02*
X132496433Y-76369580D01*
X132496433Y-76369580D02*
X132448814Y-76417200D01*
X132448814Y-76417200D02*
X132353576Y-76464819D01*
X132353576Y-76464819D02*
X131972624Y-76464819D01*
X131972624Y-76464819D02*
X131972624Y-75464819D01*
X131972624Y-75464819D02*
X132305957Y-75464819D01*
X132305957Y-75464819D02*
X132401195Y-75512438D01*
X132401195Y-75512438D02*
X132448814Y-75560057D01*
X132448814Y-75560057D02*
X132496433Y-75655295D01*
X132496433Y-75655295D02*
X132496433Y-75750533D01*
X132496433Y-75750533D02*
X132448814Y-75845771D01*
X132448814Y-75845771D02*
X132401195Y-75893390D01*
X132401195Y-75893390D02*
X132305957Y-75941009D01*
X132305957Y-75941009D02*
X131972624Y-75941009D01*
X133544052Y-76464819D02*
X133210719Y-75988628D01*
X132972624Y-76464819D02*
X132972624Y-75464819D01*
X132972624Y-75464819D02*
X133353576Y-75464819D01*
X133353576Y-75464819D02*
X133448814Y-75512438D01*
X133448814Y-75512438D02*
X133496433Y-75560057D01*
X133496433Y-75560057D02*
X133544052Y-75655295D01*
X133544052Y-75655295D02*
X133544052Y-75798152D01*
X133544052Y-75798152D02*
X133496433Y-75893390D01*
X133496433Y-75893390D02*
X133448814Y-75941009D01*
X133448814Y-75941009D02*
X133353576Y-75988628D01*
X133353576Y-75988628D02*
X132972624Y-75988628D01*
X133734529Y-76560057D02*
X134496433Y-76560057D01*
X134734529Y-76464819D02*
X134734529Y-75464819D01*
X134734529Y-75464819D02*
X135067862Y-76179104D01*
X135067862Y-76179104D02*
X135401195Y-75464819D01*
X135401195Y-75464819D02*
X135401195Y-76464819D01*
X136401195Y-76464819D02*
X135829767Y-76464819D01*
X136115481Y-76464819D02*
X136115481Y-75464819D01*
X136115481Y-75464819D02*
X136020243Y-75607676D01*
X136020243Y-75607676D02*
X135925005Y-75702914D01*
X135925005Y-75702914D02*
X135829767Y-75750533D01*
X142989580Y-74466667D02*
X143037200Y-74514286D01*
X143037200Y-74514286D02*
X143084819Y-74657143D01*
X143084819Y-74657143D02*
X143084819Y-74752381D01*
X143084819Y-74752381D02*
X143037200Y-74895238D01*
X143037200Y-74895238D02*
X142941961Y-74990476D01*
X142941961Y-74990476D02*
X142846723Y-75038095D01*
X142846723Y-75038095D02*
X142656247Y-75085714D01*
X142656247Y-75085714D02*
X142513390Y-75085714D01*
X142513390Y-75085714D02*
X142322914Y-75038095D01*
X142322914Y-75038095D02*
X142227676Y-74990476D01*
X142227676Y-74990476D02*
X142132438Y-74895238D01*
X142132438Y-74895238D02*
X142084819Y-74752381D01*
X142084819Y-74752381D02*
X142084819Y-74657143D01*
X142084819Y-74657143D02*
X142132438Y-74514286D01*
X142132438Y-74514286D02*
X142180057Y-74466667D01*
X142084819Y-74180952D02*
X142084819Y-73609524D01*
X143084819Y-73895238D02*
X142084819Y-73895238D01*
X143084819Y-72704762D02*
X142608628Y-73038095D01*
X143084819Y-73276190D02*
X142084819Y-73276190D01*
X142084819Y-73276190D02*
X142084819Y-72895238D01*
X142084819Y-72895238D02*
X142132438Y-72800000D01*
X142132438Y-72800000D02*
X142180057Y-72752381D01*
X142180057Y-72752381D02*
X142275295Y-72704762D01*
X142275295Y-72704762D02*
X142418152Y-72704762D01*
X142418152Y-72704762D02*
X142513390Y-72752381D01*
X142513390Y-72752381D02*
X142561009Y-72800000D01*
X142561009Y-72800000D02*
X142608628Y-72895238D01*
X142608628Y-72895238D02*
X142608628Y-73276190D01*
X143084819Y-71800000D02*
X143084819Y-72276190D01*
X143084819Y-72276190D02*
X142084819Y-72276190D01*
X143180057Y-71704762D02*
X143180057Y-70942857D01*
X142084819Y-70704761D02*
X142894342Y-70704761D01*
X142894342Y-70704761D02*
X142989580Y-70657142D01*
X142989580Y-70657142D02*
X143037200Y-70609523D01*
X143037200Y-70609523D02*
X143084819Y-70514285D01*
X143084819Y-70514285D02*
X143084819Y-70323809D01*
X143084819Y-70323809D02*
X143037200Y-70228571D01*
X143037200Y-70228571D02*
X142989580Y-70180952D01*
X142989580Y-70180952D02*
X142894342Y-70133333D01*
X142894342Y-70133333D02*
X142084819Y-70133333D01*
X142799104Y-69704761D02*
X142799104Y-69228571D01*
X143084819Y-69799999D02*
X142084819Y-69466666D01*
X142084819Y-69466666D02*
X143084819Y-69133333D01*
X143084819Y-68228571D02*
X142608628Y-68561904D01*
X143084819Y-68799999D02*
X142084819Y-68799999D01*
X142084819Y-68799999D02*
X142084819Y-68419047D01*
X142084819Y-68419047D02*
X142132438Y-68323809D01*
X142132438Y-68323809D02*
X142180057Y-68276190D01*
X142180057Y-68276190D02*
X142275295Y-68228571D01*
X142275295Y-68228571D02*
X142418152Y-68228571D01*
X142418152Y-68228571D02*
X142513390Y-68276190D01*
X142513390Y-68276190D02*
X142561009Y-68323809D01*
X142561009Y-68323809D02*
X142608628Y-68419047D01*
X142608628Y-68419047D02*
X142608628Y-68799999D01*
X142084819Y-67942856D02*
X142084819Y-67371428D01*
X143084819Y-67657142D02*
X142084819Y-67657142D01*
X143084819Y-66514285D02*
X143084819Y-67085713D01*
X143084819Y-66799999D02*
X142084819Y-66799999D01*
X142084819Y-66799999D02*
X142227676Y-66895237D01*
X142227676Y-66895237D02*
X142322914Y-66990475D01*
X142322914Y-66990475D02*
X142370533Y-67085713D01*
X137241671Y-85641009D02*
X136908338Y-85641009D01*
X136908338Y-86164819D02*
X136908338Y-85164819D01*
X136908338Y-85164819D02*
X137384528Y-85164819D01*
X138241671Y-86164819D02*
X137765481Y-86164819D01*
X137765481Y-86164819D02*
X137765481Y-85164819D01*
X138336910Y-86260057D02*
X139098814Y-86260057D01*
X139336910Y-85641009D02*
X139670243Y-85641009D01*
X139813100Y-86164819D02*
X139336910Y-86164819D01*
X139336910Y-86164819D02*
X139336910Y-85164819D01*
X139336910Y-85164819D02*
X139813100Y-85164819D01*
X140765481Y-86164819D02*
X140194053Y-86164819D01*
X140479767Y-86164819D02*
X140479767Y-85164819D01*
X140479767Y-85164819D02*
X140384529Y-85307676D01*
X140384529Y-85307676D02*
X140289291Y-85402914D01*
X140289291Y-85402914D02*
X140194053Y-85450533D01*
D11*
X142133100Y-86710000D02*
X143463100Y-86710000D01*
X142133100Y-88040000D02*
X142133100Y-86710000D01*
X142133100Y-89310000D02*
X142133100Y-96990000D01*
X142133100Y-89310000D02*
X144793100Y-89310000D01*
X142133100Y-96990000D02*
X144793100Y-96990000D01*
X144793100Y-89310000D02*
X144793100Y-96990000D01*
X128183100Y-86710000D02*
X129513100Y-86710000D01*
X128183100Y-88040000D02*
X128183100Y-86710000D01*
X128183100Y-89310000D02*
X128183100Y-96990000D01*
X128183100Y-89310000D02*
X130843100Y-89310000D01*
X128183100Y-96990000D02*
X130843100Y-96990000D01*
X130843100Y-89310000D02*
X130843100Y-96990000D01*
X137483100Y-77010000D02*
X138813100Y-77010000D01*
X137483100Y-78340000D02*
X137483100Y-77010000D01*
X137483100Y-79610000D02*
X137483100Y-84750000D01*
X137483100Y-79610000D02*
X140143100Y-79610000D01*
X137483100Y-84750000D02*
X140143100Y-84750000D01*
X140143100Y-79610000D02*
X140143100Y-84750000D01*
X128183100Y-77010000D02*
X129513100Y-77010000D01*
X128183100Y-78340000D02*
X128183100Y-77010000D01*
X128183100Y-79610000D02*
X128183100Y-84750000D01*
X128183100Y-79610000D02*
X130843100Y-79610000D01*
X128183100Y-84750000D02*
X130843100Y-84750000D01*
X130843100Y-79610000D02*
X130843100Y-84750000D01*
X132645000Y-102930000D02*
X132645000Y-101600000D01*
X133975000Y-102930000D02*
X132645000Y-102930000D01*
X135245000Y-102930000D02*
X140385000Y-102930000D01*
X135245000Y-102930000D02*
X135245000Y-100270000D01*
X140385000Y-102930000D02*
X140385000Y-100270000D01*
X135245000Y-100270000D02*
X140385000Y-100270000D01*
X142133100Y-77010000D02*
X143463100Y-77010000D01*
X142133100Y-78340000D02*
X142133100Y-77010000D01*
X142133100Y-79610000D02*
X142133100Y-84750000D01*
X142133100Y-79610000D02*
X144793100Y-79610000D01*
X142133100Y-84750000D02*
X144793100Y-84750000D01*
X144793100Y-79610000D02*
X144793100Y-84750000D01*
X132833100Y-86710000D02*
X134163100Y-86710000D01*
X132833100Y-88040000D02*
X132833100Y-86710000D01*
X132833100Y-89310000D02*
X132833100Y-96990000D01*
X132833100Y-89310000D02*
X135493100Y-89310000D01*
X132833100Y-96990000D02*
X135493100Y-96990000D01*
X135493100Y-89310000D02*
X135493100Y-96990000D01*
X132833100Y-77010000D02*
X134163100Y-77010000D01*
X132833100Y-78340000D02*
X132833100Y-77010000D01*
X132833100Y-79610000D02*
X132833100Y-84750000D01*
X132833100Y-79610000D02*
X135493100Y-79610000D01*
X132833100Y-84750000D02*
X135493100Y-84750000D01*
X135493100Y-79610000D02*
X135493100Y-84750000D01*
X141630000Y-69470000D02*
X141630000Y-70800000D01*
X140300000Y-69470000D02*
X141630000Y-69470000D01*
X139030000Y-69470000D02*
X131350000Y-69470000D01*
X139030000Y-69470000D02*
X139030000Y-72130000D01*
X131350000Y-69470000D02*
X131350000Y-72130000D01*
X139030000Y-72130000D02*
X131350000Y-72130000D01*
X137483100Y-86710000D02*
X138813100Y-86710000D01*
X137483100Y-88040000D02*
X137483100Y-86710000D01*
X137483100Y-89310000D02*
X137483100Y-96990000D01*
X137483100Y-89310000D02*
X140143100Y-89310000D01*
X137483100Y-96990000D02*
X140143100Y-96990000D01*
X140143100Y-89310000D02*
X140143100Y-96990000D01*
%LPC*%
D12*
X143463100Y-88040000D03*
D13*
X143463100Y-90580000D03*
X143463100Y-93120000D03*
X143463100Y-95660000D03*
D14*
X160630000Y-59700000D03*
D12*
X129513100Y-88040000D03*
D13*
X129513100Y-90580000D03*
X129513100Y-93120000D03*
X129513100Y-95660000D03*
D12*
X138813100Y-78340000D03*
D13*
X138813100Y-80880000D03*
X138813100Y-83420000D03*
D12*
X129513100Y-78340000D03*
D13*
X129513100Y-80880000D03*
X129513100Y-83420000D03*
D12*
X133975000Y-101600000D03*
D13*
X136515000Y-101600000D03*
X139055000Y-101600000D03*
D12*
X143463100Y-78340000D03*
D13*
X143463100Y-80880000D03*
X143463100Y-83420000D03*
D12*
X134163100Y-88040000D03*
D13*
X134163100Y-90580000D03*
X134163100Y-93120000D03*
X134163100Y-95660000D03*
D12*
X134163100Y-78340000D03*
D13*
X134163100Y-80880000D03*
X134163100Y-83420000D03*
D14*
X145390000Y-110400000D03*
X112370000Y-58430000D03*
D12*
X140300000Y-70800000D03*
D13*
X137760000Y-70800000D03*
X135220000Y-70800000D03*
X132680000Y-70800000D03*
D12*
X138813100Y-88040000D03*
D13*
X138813100Y-90580000D03*
X138813100Y-93120000D03*
X138813100Y-95660000D03*
D12*
X165710000Y-62240000D03*
D13*
X168250000Y-62240000D03*
X165710000Y-64780000D03*
X168250000Y-64780000D03*
X165710000Y-67320000D03*
X168250000Y-67320000D03*
X165710000Y-69860000D03*
X168250000Y-69860000D03*
X165710000Y-72400000D03*
X168250000Y-72400000D03*
X165710000Y-74940000D03*
X168250000Y-74940000D03*
X165710000Y-77480000D03*
X168250000Y-77480000D03*
X165710000Y-80020000D03*
X168250000Y-80020000D03*
X165710000Y-82560000D03*
X168250000Y-82560000D03*
X165710000Y-85100000D03*
X168250000Y-85100000D03*
X165710000Y-87640000D03*
X168250000Y-87640000D03*
X165710000Y-90180000D03*
X168250000Y-90180000D03*
X165710000Y-92720000D03*
X168250000Y-92720000D03*
X165710000Y-95260000D03*
X168250000Y-95260000D03*
X165710000Y-97800000D03*
X168250000Y-97800000D03*
X165710000Y-100340000D03*
X168250000Y-100340000D03*
X165710000Y-102880000D03*
X168250000Y-102880000D03*
X165710000Y-105420000D03*
X168250000Y-105420000D03*
X165710000Y-107960000D03*
X168250000Y-107960000D03*
D12*
X104750000Y-62240000D03*
D13*
X107290000Y-62240000D03*
X104750000Y-64780000D03*
X107290000Y-64780000D03*
X104750000Y-67320000D03*
X107290000Y-67320000D03*
X104750000Y-69860000D03*
X107290000Y-69860000D03*
X104750000Y-72400000D03*
X107290000Y-72400000D03*
X104750000Y-74940000D03*
X107290000Y-74940000D03*
X104750000Y-77480000D03*
X107290000Y-77480000D03*
X104750000Y-80020000D03*
X107290000Y-80020000D03*
X104750000Y-82560000D03*
X107290000Y-82560000D03*
X104750000Y-85100000D03*
X107290000Y-85100000D03*
X104750000Y-87640000D03*
X107290000Y-87640000D03*
X104750000Y-90180000D03*
X107290000Y-90180000D03*
X104750000Y-92720000D03*
X107290000Y-92720000D03*
X104750000Y-95260000D03*
X107290000Y-95260000D03*
X104750000Y-97800000D03*
X107290000Y-97800000D03*
X104750000Y-100340000D03*
X107290000Y-100340000D03*
X104750000Y-102880000D03*
X107290000Y-102880000D03*
X104750000Y-105420000D03*
X107290000Y-105420000D03*
X104750000Y-107960000D03*
X107290000Y-107960000D03*
%LPD*%
M02*
